ISO-10303-21;
HEADER;
FILE_DESCRIPTION (( 'STEP AP214' ),
    '1' );
FILE_NAME ('semi circle (1).STEP',
    '2025-05-06T19:55:35',
    ( '' ),
    ( '' ),
    'SwSTEP 2.0',
    'SolidWorks 2025',
    '' );
FILE_SCHEMA (( 'AUTOMOTIVE_DESIGN' ));
ENDSEC;

DATA;
#1 = LINE ( 'NONE', #89, #97 ) ;
#2 = LINE ( 'NONE', #9, #611 ) ;
#3 = DIRECTION ( 'NONE',  ( -0.0000000000000000000, 0.0000000000000000000, 1.000000000000000000 ) ) ;
#4 = EDGE_LOOP ( 'NONE', ( #895, #703, #958, #920 ) ) ;
#5 = ORIENTED_EDGE ( 'NONE', *, *, #131, .F. ) ;
#6 = AXIS2_PLACEMENT_3D ( 'NONE', #621, #856, #118 ) ;
#7 = FACE_OUTER_BOUND ( 'NONE', #429, .T. ) ;
#8 = EDGE_CURVE ( 'NONE', #73, #273, #35, .T. ) ;
#9 = CARTESIAN_POINT ( 'NONE',  ( -0.5180952844138221325, 0.5212582500338840408, 0.03200000000000000067 ) ) ;
#10 = CARTESIAN_POINT ( 'NONE',  ( 0.3929999999999999605, 0.4939999999999999947, 0.03200000000000000067 ) ) ;
#11 = EDGE_LOOP ( 'NONE', ( #638, #426, #136, #442 ) ) ;
#12 = CARTESIAN_POINT ( 'NONE',  ( 0.03369084767572786548, -0.009309313173556387627, 0.03200000000000000067 ) ) ;
#13 = DIRECTION ( 'NONE',  ( 0.0000000000000000000, 0.0000000000000000000, -1.000000000000000000 ) ) ;
#14 = ADVANCED_FACE ( 'NONE', ( #386 ), #45, .F. ) ;
#15 = EDGE_LOOP ( 'NONE', ( #360, #529, #168, #646 ) ) ;
#16 = VERTEX_POINT ( 'NONE', #612 ) ;
#17 = AXIS2_PLACEMENT_3D ( 'NONE', #447, #504, #20 ) ;
#18 = LINE ( 'NONE', #311, #954 ) ;
#19 = AXIS2_PLACEMENT_3D ( 'NONE', #109, #696, #607 ) ;
#20 = DIRECTION ( 'NONE',  ( -1.000000000000000000, 0.0000000000000000000, 0.0000000000000000000 ) ) ;
#21 = CARTESIAN_POINT ( 'NONE',  ( 0.4489999999999999547, 0.4939999999999999947, 0.0000000000000000000 ) ) ;
#22 = VERTEX_POINT ( 'NONE', #320 ) ;
#23 = EDGE_LOOP ( 'NONE', ( #826, #143 ) ) ;
#24 = DIRECTION ( 'NONE',  ( -1.000000000000000000, 0.0000000000000000000, 0.0000000000000000000 ) ) ;
#25 = ADVANCED_FACE ( 'NONE', ( #783 ), #915, .T. ) ;
#26 = AXIS2_PLACEMENT_3D ( 'NONE', #931, #333, #204 ) ;
#27 = DIRECTION ( 'NONE',  ( 0.7780838748249682135, 0.6281603965050353011, 0.0000000000000000000 ) ) ;
#28 = DIRECTION ( 'NONE',  ( -0.0000000000000000000, -0.0000000000000000000, -1.000000000000000000 ) ) ;
#29 = CIRCLE ( 'NONE', #153, 0.04000000000000001471 ) ;
#30 = ORIENTED_EDGE ( 'NONE', *, *, #722, .F. ) ;
#31 = CARTESIAN_POINT ( 'NONE',  ( -0.5140000000000000124, 0.4799999999999999822, 0.03200000000000000067 ) ) ;
#32 = ADVANCED_FACE ( 'NONE', ( #463 ), #396, .T. ) ;
#33 = DIRECTION ( 'NONE',  ( 1.000000000000000000, 0.0000000000000000000, 0.0000000000000000000 ) ) ;
#34 = CARTESIAN_POINT ( 'NONE',  ( -0.2425161150133228471, 0.2126748036679574350, 0.0000000000000000000 ) ) ;
#35 = LINE ( 'NONE', #189, #878 ) ;
#36 = CARTESIAN_POINT ( 'NONE',  ( 0.3929999999999999605, 0.4939999999999999947, 0.0000000000000000000 ) ) ;
#37 = DIRECTION ( 'NONE',  ( -1.000000000000000000, 0.0000000000000000000, 0.0000000000000000000 ) ) ;
#38 = DIRECTION ( 'NONE',  ( 0.0000000000000000000, -0.0000000000000000000, -1.000000000000000000 ) ) ;
#39 = DIRECTION ( 'NONE',  ( 1.000000000000000000, 0.0000000000000000000, 0.0000000000000000000 ) ) ;
#40 = VERTEX_POINT ( 'NONE', #346 ) ;
#41 = CARTESIAN_POINT ( 'NONE',  ( -0.2665282713349111376, 0.1806839245179933384, 0.03200000000000000067 ) ) ;
#42 = CLOSED_SHELL ( 'NONE', ( #606, #914, #868, #556, #558, #600, #94, #25, #782, #63, #32, #246, #329, #670, #113, #455, #789, #827, #14, #775, #526, #761, #439, #841, #465, #936, #166, #388 ) ) ;
#43 = EDGE_CURVE ( 'NONE', #777, #548, #716, .T. ) ;
#44 = AXIS2_PLACEMENT_3D ( 'NONE', #659, #152, #433 ) ;
#45 = CYLINDRICAL_SURFACE ( 'NONE', #571, 0.2010000000000000120 ) ;
#46 = LINE ( 'NONE', #926, #674 ) ;
#47 = VERTEX_POINT ( 'NONE', #483 ) ;
#48 = ORIENTED_EDGE ( 'NONE', *, *, #907, .T. ) ;
#49 = DIRECTION ( 'NONE',  ( 1.000000000000000000, 0.0000000000000000000, 0.0000000000000000000 ) ) ;
#50 = ORIENTED_EDGE ( 'NONE', *, *, #749, .F. ) ;
#51 = DIRECTION ( 'NONE',  ( 1.000000000000000000, 0.0000000000000000000, 0.0000000000000000000 ) ) ;
#52 = AXIS2_PLACEMENT_3D ( 'NONE', #196, #784, #111 ) ;
#53 = ORIENTED_EDGE ( 'NONE', *, *, #101, .T. ) ;
#54 = LINE ( 'NONE', #334, #962 ) ;
#55 = LINE ( 'NONE', #934, #72 ) ;
#56 = UNCERTAINTY_MEASURE_WITH_UNIT (LENGTH_MEASURE( 1.000000000000000082E-05 ), #477, 'distance_accuracy_value', 'NONE');
#57 = CARTESIAN_POINT ( 'NONE',  ( -0.4538380144907618319, 0.5528423318604728243, 0.0000000000000000000 ) ) ;
#58 = ORIENTED_EDGE ( 'NONE', *, *, #818, .F. ) ;
#59 = DIRECTION ( 'NONE',  ( 0.0000000000000000000, -0.0000000000000000000, -1.000000000000000000 ) ) ;
#60 = DIRECTION ( 'NONE',  ( 0.7997719787491028853, -0.6003039080397065685, 0.0000000000000000000 ) ) ;
#61 = VERTEX_POINT ( 'NONE', #636 ) ;
#62 = DIRECTION ( 'NONE',  ( 1.000000000000000000, 0.0000000000000000000, 0.0000000000000000000 ) ) ;
#63 = ADVANCED_FACE ( 'NONE', ( #644 ), #874, .T. ) ;
#64 = VERTEX_POINT ( 'NONE', #277 ) ;
#65 = CARTESIAN_POINT ( 'NONE',  ( 0.2383184267968200543, 0.2162741445603595936, 0.0000000000000000000 ) ) ;
#66 = LINE ( 'NONE', #643, #77 ) ;
#67 = DIRECTION ( 'NONE',  ( 0.4042621676670206110, 0.9146431543466346792, -0.0000000000000000000 ) ) ;
#68 = CARTESIAN_POINT ( 'NONE',  ( -0.5493926288097840116, 0.4710011231153236611, 0.03200000000000000067 ) ) ;
#69 = VERTEX_POINT ( 'NONE', #566 ) ;
#70 = ORIENTED_EDGE ( 'NONE', *, *, #911, .T. ) ;
#71 = EDGE_CURVE ( 'NONE', #760, #893, #224, .T. ) ;
#72 = VECTOR ( 'NONE', #530, 39.37007874015748854 ) ;
#73 = VERTEX_POINT ( 'NONE', #793 ) ;
#74 = ORIENTED_EDGE ( 'NONE', *, *, #410, .F. ) ;
#75 = CARTESIAN_POINT ( 'NONE',  ( 0.2234448426570214974, 0.1851507895673608350, 0.03200000000000000067 ) ) ;
#76 = ORIENTED_EDGE ( 'NONE', *, *, #568, .T. ) ;
#77 = VECTOR ( 'NONE', #275, 39.37007874015748143 ) ;
#78 = CIRCLE ( 'NONE', #323, 0.05600000000000002892 ) ;
#79 = VERTEX_POINT ( 'NONE', #491 ) ;
#80 = DIRECTION ( 'NONE',  ( -0.0000000000000000000, 0.0000000000000000000, 1.000000000000000000 ) ) ;
#81 = ORIENTED_EDGE ( 'NONE', *, *, #424, .F. ) ;
#82 = CARTESIAN_POINT ( 'NONE',  ( -0.01902691792715413555, -0.2000974172601769352, 0.03200000000000000067 ) ) ;
#83 = FACE_OUTER_BOUND ( 'NONE', #502, .T. ) ;
#84 = ORIENTED_EDGE ( 'NONE', *, *, #663, .T. ) ;
#85 = AXIS2_PLACEMENT_3D ( 'NONE', #816, #885, #154 ) ;
#86 = ORIENTED_EDGE ( 'NONE', *, *, #596, .T. ) ;
#87 = CYLINDRICAL_SURFACE ( 'NONE', #134, 0.05600000000000002892 ) ;
#88 = EDGE_CURVE ( 'NONE', #548, #842, #631, .T. ) ;
#89 = CARTESIAN_POINT ( 'NONE',  ( -0.2425161150133229304, 0.2126748036679574627, 0.03200000000000000067 ) ) ;
#90 = CARTESIAN_POINT ( 'NONE',  ( -0.0008084969511555448619, 0.3011199205613347973, 0.03200000000000000067 ) ) ;
#91 = AXIS2_PLACEMENT_3D ( 'NONE', #459, #840, #781 ) ;
#92 = CIRCLE ( 'NONE', #194, 0.05600000000000002892 ) ;
#93 = EDGE_CURVE ( 'NONE', #559, #202, #863, .T. ) ;
#94 = ADVANCED_FACE ( 'NONE', ( #553 ), #407, .T. ) ;
#95 = CARTESIAN_POINT ( 'NONE',  ( 0.2634448426570215052, 0.1851507895673608350, 0.0000000000000000000 ) ) ;
#96 = ORIENTED_EDGE ( 'NONE', *, *, #287, .F. ) ;
#97 = VECTOR ( 'NONE', #642, 39.37007874015748143 ) ;
#98 = VECTOR ( 'NONE', #60, 39.37007874015748143 ) ;
#99 = CARTESIAN_POINT ( 'NONE',  ( -0.0008084969511555448619, 0.3011199205613347973, 0.03200000000000000067 ) ) ;
#100 = DIRECTION ( 'NONE',  ( -1.000000000000000000, 0.0000000000000000000, 0.0000000000000000000 ) ) ;
#101 = EDGE_CURVE ( 'NONE', #661, #508, #193, .T. ) ;
#102 = CIRCLE ( 'NONE', #694, 0.05600000000000002892 ) ;
#103 = DIRECTION ( 'NONE',  ( 1.000000000000000000, 0.0000000000000000000, 0.0000000000000000000 ) ) ;
#104 = DIRECTION ( 'NONE',  ( -0.0000000000000000000, 0.0000000000000000000, 1.000000000000000000 ) ) ;
#105 = ORIENTED_EDGE ( 'NONE', *, *, #185, .T. ) ;
#106 = VERTEX_POINT ( 'NONE', #192 ) ;
#107 = CARTESIAN_POINT ( 'NONE',  ( 0.3929999999999999605, 0.4939999999999999947, 0.03200000000000000067 ) ) ;
#108 = DIRECTION ( 'NONE',  ( 1.000000000000000000, 0.0000000000000000000, 0.0000000000000000000 ) ) ;
#109 = CARTESIAN_POINT ( 'NONE',  ( 0.4489999999999999547, 0.4939999999999999947, 0.03200000000000000067 ) ) ;
#110 = DIRECTION ( 'NONE',  ( 1.000000000000000000, 0.0000000000000000000, 0.0000000000000000000 ) ) ;
#111 = DIRECTION ( 'NONE',  ( 1.000000000000000000, 2.561107494060245757E-15, 0.0000000000000000000 ) ) ;
#112 = AXIS2_PLACEMENT_3D ( 'NONE', #617, #538, #741 ) ;
#113 = ADVANCED_FACE ( 'NONE', ( #702 ), #245, .T. ) ;
#114 = DIRECTION ( 'NONE',  ( -0.0000000000000000000, -0.0000000000000000000, -1.000000000000000000 ) ) ;
#115 = LINE ( 'NONE', #262, #519 ) ;
#116 = DIRECTION ( 'NONE',  ( 0.0000000000000000000, 0.0000000000000000000, -1.000000000000000000 ) ) ;
#117 = PLANE ( 'NONE',  #186 ) ;
#118 = DIRECTION ( 'NONE',  ( 1.000000000000000000, 0.0000000000000000000, 0.0000000000000000000 ) ) ;
#119 = VECTOR ( 'NONE', #862, 39.37007874015748143 ) ;
#120 = VECTOR ( 'NONE', #28, 39.37007874015748143 ) ;
#121 = CYLINDRICAL_SURFACE ( 'NONE', #230, 0.05600000000000002892 ) ;
#122 = ORIENTED_EDGE ( 'NONE', *, *, #287, .T. ) ;
#123 = DIRECTION ( 'NONE',  ( -0.0000000000000000000, -0.0000000000000000000, 1.000000000000000000 ) ) ;
#124 = DIRECTION ( 'NONE',  ( -0.0000000000000000000, -0.0000000000000000000, -1.000000000000000000 ) ) ;
#125 = ORIENTED_EDGE ( 'NONE', *, *, #596, .F. ) ;
#126 = CARTESIAN_POINT ( 'NONE',  ( 0.5070212982399783241, 0.5381176582364738392, 0.0000000000000000000 ) ) ;
#127 = CARTESIAN_POINT ( 'NONE',  ( -0.4933926288097839064, 0.4710011231153236611, 0.0000000000000000000 ) ) ;
#128 = EDGE_CURVE ( 'NONE', #890, #64, #488, .T. ) ;
#129 = DIRECTION ( 'NONE',  ( 1.000000000000000000, 0.0000000000000000000, 0.0000000000000000000 ) ) ;
#130 = ORIENTED_EDGE ( 'NONE', *, *, #353, .T. ) ;
#131 = EDGE_CURVE ( 'NONE', #832, #73, #164, .T. ) ;
#132 = EDGE_LOOP ( 'NONE', ( #905, #555, #380, #599 ) ) ;
#133 = DIRECTION ( 'NONE',  ( 0.0000000000000000000, 0.0000000000000000000, -1.000000000000000000 ) ) ;
#134 = AXIS2_PLACEMENT_3D ( 'NONE', #592, #821, #901 ) ;
#135 = COLOUR_RGB ( '',0.7921568627450980005, 0.8196078431372548767, 0.9333333333333333481 ) ;
#136 = ORIENTED_EDGE ( 'NONE', *, *, #516, .T. ) ;
#137 = PLANE ( 'NONE',  #423 ) ;
#138 = ORIENTED_EDGE ( 'NONE', *, *, #818, .T. ) ;
#139 = CARTESIAN_POINT ( 'NONE',  ( 0.4843826168506251695, 0.4868976415930622581, 0.03200000000000000067 ) ) ;
#140 = ORIENTED_EDGE ( 'NONE', *, *, #587, .F. ) ;
#141 = DIRECTION ( 'NONE',  ( -0.0000000000000000000, -0.0000000000000000000, 1.000000000000000000 ) ) ;
#142 = CARTESIAN_POINT ( 'NONE',  ( 0.1202660440206858861, 0.1602278624452809497, 0.0000000000000000000 ) ) ;
#143 = ORIENTED_EDGE ( 'NONE', *, *, #424, .T. ) ;
#144 = DIRECTION ( 'NONE',  ( 1.000000000000000000, 0.0000000000000000000, 0.0000000000000000000 ) ) ;
#145 = VECTOR ( 'NONE', #124, 39.37007874015748143 ) ;
#146 = ORIENTED_EDGE ( 'NONE', *, *, #352, .F. ) ;
#147 = EDGE_LOOP ( 'NONE', ( #460, #70, #707, #216 ) ) ;
#148 = DIRECTION ( 'NONE',  ( 1.000000000000000000, 0.0000000000000000000, 0.0000000000000000000 ) ) ;
#149 = VERTEX_POINT ( 'NONE', #462 ) ;
#150 = ORIENTED_EDGE ( 'NONE', *, *, #191, .T. ) ;
#151 = AXIS2_PLACEMENT_3D ( 'NONE', #357, #509, #176 ) ;
#152 = DIRECTION ( 'NONE',  ( -0.0000000000000000000, 0.0000000000000000000, 1.000000000000000000 ) ) ;
#153 = AXIS2_PLACEMENT_3D ( 'NONE', #95, #377, #675 ) ;
#154 = DIRECTION ( 'NONE',  ( 1.000000000000000000, 0.0000000000000000000, 0.0000000000000000000 ) ) ;
#155 = CARTESIAN_POINT ( 'NONE',  ( -0.3955183400365003266, 0.5473724357518624517, 0.0000000000000000000 ) ) ;
#156 = ORIENTED_EDGE ( 'NONE', *, *, #236, .T. ) ;
#157 = LINE ( 'NONE', #436, #735 ) ;
#158 = EDGE_LOOP ( 'NONE', ( #295, #772, #730, #641, #356, #622, #831, #84, #721, #796, #689, #30, #580, #806, #53, #234, #314, #699, #343, #940, #935, #138 ) ) ;
#159 = ORIENTED_EDGE ( 'NONE', *, *, #837, .F. ) ;
#160 = EDGE_CURVE ( 'NONE', #278, #221, #589, .T. ) ;
#161 = FACE_OUTER_BOUND ( 'NONE', #259, .T. ) ;
#162 = FACE_OUTER_BOUND ( 'NONE', #4, .T. ) ;
#163 = ORIENTED_EDGE ( 'NONE', *, *, #318, .F. ) ;
#164 = CIRCLE ( 'NONE', #6, 0.05600000000000002892 ) ;
#165 = CIRCLE ( 'NONE', #286, 0.05600000000000002892 ) ;
#166 = ADVANCED_FACE ( 'NONE', ( #913 ), #764, .F. ) ;
#167 = FACE_OUTER_BOUND ( 'NONE', #449, .T. ) ;
#168 = ORIENTED_EDGE ( 'NONE', *, *, #292, .F. ) ;
#169 = CARTESIAN_POINT ( 'NONE',  ( -0.02482065327274381866, 0.2691290414113706730, 0.03200000000000000067 ) ) ;
#170 = EDGE_CURVE ( 'NONE', #106, #595, #786, .T. ) ;
#171 = LINE ( 'NONE', #757, #919 ) ;
#172 = PRODUCT_DEFINITION_SHAPE ( 'NONE', 'NONE',  #517 ) ;
#173 = ORIENTED_EDGE ( 'NONE', *, *, #170, .T. ) ;
#174 = CIRCLE ( 'NONE', #330, 0.2010000000000000120 ) ;
#175 = CIRCLE ( 'NONE', #281, 0.2819999999999999729 ) ;
#176 = DIRECTION ( 'NONE',  ( -0.8974486949742920272, -0.4411188500721092698, 0.0000000000000000000 ) ) ;
#177 = APPLICATION_CONTEXT ( 'automotive_design' ) ;
#178 = AXIS2_PLACEMENT_3D ( 'NONE', #41, #400, #332 ) ;
#179 = CARTESIAN_POINT ( 'NONE',  ( 0.2307187752462114272, 0.1621506914844588476, 0.0000000000000000000 ) ) ;
#180 = ORIENTED_EDGE ( 'NONE', *, *, #704, .F. ) ;
#181 = EDGE_CURVE ( 'NONE', #418, #832, #115, .T. ) ;
#182 = SURFACE_STYLE_USAGE ( .BOTH. , #845 ) ;
#183 = DIRECTION ( 'NONE',  ( -1.000000000000000000, 0.0000000000000000000, 0.0000000000000000000 ) ) ;
#184 = CARTESIAN_POINT ( 'NONE',  ( 0.0000000000000000000, 0.0000000000000000000, 0.0000000000000000000 ) ) ;
#185 = EDGE_CURVE ( 'NONE', #872, #69, #102, .T. ) ;
#186 = AXIS2_PLACEMENT_3D ( 'NONE', #326, #535, #33 ) ;
#187 = CARTESIAN_POINT ( 'NONE',  ( 0.2234448426570214974, 0.1851507895673608350, 0.03200000000000000067 ) ) ;
#188 = AXIS2_PLACEMENT_3D ( 'NONE', #184, #847, #549 ) ;
#189 = CARTESIAN_POINT ( 'NONE',  ( 0.3834291176920610611, 0.5595739699036472725, 0.03200000000000000067 ) ) ;
#190 = DIRECTION ( 'NONE',  ( -1.000000000000000000, 0.0000000000000000000, 0.0000000000000000000 ) ) ;
#191 = EDGE_CURVE ( 'NONE', #892, #278, #403, .T. ) ;
#192 = CARTESIAN_POINT ( 'NONE',  ( -0.04083656068653812587, -0.2790275529608046701, 0.03200000000000000067 ) ) ;
#193 = CIRCLE ( 'NONE', #534, 0.05600000000000002892 ) ;
#194 = AXIS2_PLACEMENT_3D ( 'NONE', #742, #104, #233 ) ;
#195 = DIRECTION ( 'NONE',  ( -1.000000000000000000, 0.0000000000000000000, 0.0000000000000000000 ) ) ;
#196 = CARTESIAN_POINT ( 'NONE',  ( 0.2634448426570215052, 0.1851507895673608350, 0.03200000000000000067 ) ) ;
#197 = CARTESIAN_POINT ( 'NONE',  ( 0.5195595990549071175, 0.4433249446028640350, 0.03200000000000000067 ) ) ;
#198 = EDGE_CURVE ( 'NONE', #211, #559, #712, .T. ) ;
#199 = DIRECTION ( 'NONE',  ( -0.7784431134371010419, -0.6277151576490347384, 0.0000000000000000000 ) ) ;
#200 = FACE_OUTER_BOUND ( 'NONE', #261, .T. ) ;
#201 = ORIENTED_EDGE ( 'NONE', *, *, #485, .T. ) ;
#202 = VERTEX_POINT ( 'NONE', #197 ) ;
#203 = LINE ( 'NONE', #75, #358 ) ;
#204 = DIRECTION ( 'NONE',  ( 1.000000000000000000, 1.707404996040163969E-15, 0.0000000000000000000 ) ) ;
#205 = LINE ( 'NONE', #921, #294 ) ;
#206 = ORIENTED_EDGE ( 'NONE', *, *, #225, .F. ) ;
#207 = VERTEX_POINT ( 'NONE', #697 ) ;
#208 = DIRECTION ( 'NONE',  ( 0.8974486949742920272, 0.4411188500721092698, 0.0000000000000000000 ) ) ;
#209 = CIRCLE ( 'NONE', #44, 0.2819999999999999729 ) ;
#210 = DIRECTION ( 'NONE',  ( -0.0000000000000000000, 0.0000000000000000000, 1.000000000000000000 ) ) ;
#211 = VERTEX_POINT ( 'NONE', #126 ) ;
#212 = EDGE_CURVE ( 'NONE', #221, #720, #258, .T. ) ;
#213 = DIRECTION ( 'NONE',  ( -0.0000000000000000000, 0.0000000000000000000, 1.000000000000000000 ) ) ;
#214 = EDGE_LOOP ( 'NONE', ( #146, #808, #834, #804 ) ) ;
#215 = VERTEX_POINT ( 'NONE', #34 ) ;
#216 = ORIENTED_EDGE ( 'NONE', *, *, #251, .F. ) ;
#217 = CARTESIAN_POINT ( 'NONE',  ( 0.0000000000000000000, 0.0000000000000000000, 0.0000000000000000000 ) ) ;
#218 = ORIENTED_EDGE ( 'NONE', *, *, #663, .F. ) ;
#219 = CIRCLE ( 'NONE', #598, 0.03999999999999998002 ) ;
#220 = CIRCLE ( 'NONE', #243, 0.2819999999999999729 ) ;
#221 = VERTEX_POINT ( 'NONE', #179 ) ;
#222 = LINE ( 'NONE', #290, #681 ) ;
#223 = DIRECTION ( 'NONE',  ( 0.6003039080397065685, 0.7997719787491029964, -0.0000000000000000000 ) ) ;
#224 = CIRCLE ( 'NONE', #26, 0.04000000000000001471 ) ;
#225 = EDGE_CURVE ( 'NONE', #825, #226, #313, .T. ) ;
#226 = VERTEX_POINT ( 'NONE', #391 ) ;
#227 = CYLINDRICAL_SURFACE ( 'NONE', #582, 0.05600000000000002892 ) ;
#228 = LINE ( 'NONE', #513, #726 ) ;
#229 = ORIENTED_EDGE ( 'NONE', *, *, #212, .T. ) ;
#230 = AXIS2_PLACEMENT_3D ( 'NONE', #628, #260, #860 ) ;
#231 = CARTESIAN_POINT ( 'NONE',  ( 0.5195595990549071175, 0.4433249446028640350, 0.0000000000000000000 ) ) ;
#232 = CYLINDRICAL_SURFACE ( 'NONE', #17, 0.2010000000000000120 ) ;
#233 = DIRECTION ( 'NONE',  ( 1.000000000000000000, 0.0000000000000000000, 0.0000000000000000000 ) ) ;
#234 = ORIENTED_EDGE ( 'NONE', *, *, #889, .T. ) ;
#235 = AXIS2_PLACEMENT_3D ( 'NONE', #881, #269, #557 ) ;
#236 = EDGE_CURVE ( 'NONE', #537, #22, #618, .T. ) ;
#237 = CIRCLE ( 'NONE', #879, 0.2010000000000000120 ) ;
#238 = DIRECTION ( 'NONE',  ( 0.9638804208296161136, -0.2663353794397624319, 0.0000000000000000000 ) ) ;
#239 = ORIENTED_EDGE ( 'NONE', *, *, #325, .F. ) ;
#240 = DIRECTION ( 'NONE',  ( -1.000000000000000000, 0.0000000000000000000, 0.0000000000000000000 ) ) ;
#241 = VERTEX_POINT ( 'NONE', #770 ) ;
#242 = MANIFOLD_SOLID_BREP ( 'Fillet6', #42 ) ;
#243 = AXIS2_PLACEMENT_3D ( 'NONE', #859, #253, #335 ) ;
#244 = FACE_OUTER_BOUND ( 'NONE', #656, .T. ) ;
#245 = CYLINDRICAL_SURFACE ( 'NONE', #467, 0.2819999999999999729 ) ;
#246 = ADVANCED_FACE ( 'NONE', ( #83 ), #541, .T. ) ;
#247 = CARTESIAN_POINT ( 'NONE',  ( 0.0000000000000000000, 0.0000000000000000000, 0.03200000000000000067 ) ) ;
#248 = AXIS2_PLACEMENT_3D ( 'NONE', #802, #80, #362 ) ;
#249 = FACE_OUTER_BOUND ( 'NONE', #147, .T. ) ;
#250 = DIRECTION ( 'NONE',  ( -0.0000000000000000000, 0.0000000000000000000, 1.000000000000000000 ) ) ;
#251 = EDGE_CURVE ( 'NONE', #149, #402, #797, .T. ) ;
#252 = EDGE_LOOP ( 'NONE', ( #561, #122, #572, #672 ) ) ;
#253 = DIRECTION ( 'NONE',  ( -0.0000000000000000000, 0.0000000000000000000, 1.000000000000000000 ) ) ;
#254 = DIRECTION ( 'NONE',  ( 0.0000000000000000000, 0.0000000000000000000, 1.000000000000000000 ) ) ;
#255 = ORIENTED_EDGE ( 'NONE', *, *, #170, .F. ) ;
#256 = DIRECTION ( 'NONE',  ( -0.2663353794397624319, -0.9638804208296161136, 0.0000000000000000000 ) ) ;
#257 = FACE_BOUND ( 'NONE', #498, .T. ) ;
#258 = LINE ( 'NONE', #683, #299 ) ;
#259 = EDGE_LOOP ( 'NONE', ( #732, #713, #652, #373 ) ) ;
#260 = DIRECTION ( 'NONE',  ( 0.0000000000000000000, 0.0000000000000000000, -1.000000000000000000 ) ) ;
#261 = EDGE_LOOP ( 'NONE', ( #880, #48, #957, #562 ) ) ;
#262 = CARTESIAN_POINT ( 'NONE',  ( 0.4412198479097603210, 0.5672011721945812157, 0.03200000000000000067 ) ) ;
#263 = AXIS2_PLACEMENT_3D ( 'NONE', #90, #514, #669 ) ;
#264 = AXIS2_PLACEMENT_3D ( 'NONE', #570, #213, #503 ) ;
#265 = CARTESIAN_POINT ( 'NONE',  ( -0.4538380144907618874, 0.5528423318604728243, 0.03200000000000000067 ) ) ;
#266 = CARTESIAN_POINT ( 'NONE',  ( -0.5270096476600075741, 0.4262138923053738759, 0.03200000000000000067 ) ) ;
#267 = DIRECTION ( 'NONE',  ( -0.0000000000000000000, 0.0000000000000000000, 1.000000000000000000 ) ) ;
#268 = DIRECTION ( 'NONE',  ( 1.000000000000000000, 0.0000000000000000000, 0.0000000000000000000 ) ) ;
#269 = DIRECTION ( 'NONE',  ( -0.0000000000000000000, 0.0000000000000000000, 1.000000000000000000 ) ) ;
#270 = CARTESIAN_POINT ( 'NONE',  ( -0.004551972499590936812, 0.01551808806678743949, 0.03200000000000000067 ) ) ;
#271 = DIRECTION ( 'NONE',  ( -0.7997719787491029964, 0.6003039080397064575, 0.0000000000000000000 ) ) ;
#272 = ORIENTED_EDGE ( 'NONE', *, *, #93, .T. ) ;
#273 = VERTEX_POINT ( 'NONE', #817 ) ;
#274 = CIRCLE ( 'NONE', #350, 0.05600000000000002892 ) ;
#275 = DIRECTION ( 'NONE',  ( 0.7784431134371010419, 0.6277151576490348495, 0.0000000000000000000 ) ) ;
#276 = EDGE_CURVE ( 'NONE', #79, #629, #734, .T. ) ;
#277 = CARTESIAN_POINT ( 'NONE',  ( 0.2234448426570214974, 0.1851507895673608350, 0.0000000000000000000 ) ) ;
#278 = VERTEX_POINT ( 'NONE', #867 ) ;
#279 = CARTESIAN_POINT ( 'NONE',  ( 0.2307187752462114272, 0.1621506914844588476, 0.03200000000000000067 ) ) ;
#280 = ORIENTED_EDGE ( 'NONE', *, *, #546, .F. ) ;
#281 = AXIS2_PLACEMENT_3D ( 'NONE', #387, #843, #457 ) ;
#282 =( NAMED_UNIT ( * ) SI_UNIT ( $, .STERADIAN. ) SOLID_ANGLE_UNIT ( ) );
#283 = APPLICATION_PROTOCOL_DEFINITION ( 'draft international standard', 'automotive_design', 1998, #590 ) ;
#284 = CARTESIAN_POINT ( 'NONE',  ( 0.1202660440206858861, 0.1602278624452809497, 0.03200000000000000067 ) ) ;
#285 = PRESENTATION_LAYER_ASSIGNMENT (  '', '', ( #858 ) ) ;
#286 = AXIS2_PLACEMENT_3D ( 'NONE', #364, #586, #144 ) ;
#287 = EDGE_CURVE ( 'NONE', #760, #64, #203, .T. ) ;
#288 = ORIENTED_EDGE ( 'NONE', *, *, #181, .T. ) ;
#289 = EDGE_CURVE ( 'NONE', #909, #73, #792, .T. ) ;
#290 = CARTESIAN_POINT ( 'NONE',  ( -0.3955183400365001600, 0.5473724357518623407, 0.03200000000000000067 ) ) ;
#291 = VERTEX_POINT ( 'NONE', #345 ) ;
#292 = EDGE_CURVE ( 'NONE', #629, #273, #66, .T. ) ;
#293 = AXIS2_PLACEMENT_3D ( 'NONE', #714, #496, #268 ) ;
#294 = VECTOR ( 'NONE', #756, 39.37007874015748854 ) ;
#295 = ORIENTED_EDGE ( 'NONE', *, *, #736, .T. ) ;
#296 = CARTESIAN_POINT ( 'NONE',  ( -0.2425161150133228471, 0.2126748036679574350, 0.03200000000000000067 ) ) ;
#297 = ADVANCED_BREP_SHAPE_REPRESENTATION ( 'semi circle (1)', ( #242, #293 ), #896 ) ;
#298 = CYLINDRICAL_SURFACE ( 'NONE', #655, 0.04000000000000001471 ) ;
#299 = VECTOR ( 'NONE', #254, 39.37007874015748143 ) ;
#300 = DIRECTION ( 'NONE',  ( -0.0000000000000000000, -0.0000000000000000000, 1.000000000000000000 ) ) ;
#301 = DIRECTION ( 'NONE',  ( 0.0000000000000000000, 0.0000000000000000000, -1.000000000000000000 ) ) ;
#302 = ORIENTED_EDGE ( 'NONE', *, *, #475, .T. ) ;
#303 = CARTESIAN_POINT ( 'NONE',  ( 0.4489999999999999547, 0.4939999999999999947, 0.03200000000000000067 ) ) ;
#304 = EDGE_LOOP ( 'NONE', ( #5, #456, #58, #512 ) ) ;
#305 = EDGE_CURVE ( 'NONE', #629, #909, #565, .T. ) ;
#306 = FACE_OUTER_BOUND ( 'NONE', #752, .T. ) ;
#307 = ORIENTED_EDGE ( 'NONE', *, *, #363, .F. ) ;
#308 = VECTOR ( 'NONE', #420, 39.37007874015748854 ) ;
#309 = AXIS2_PLACEMENT_3D ( 'NONE', #21, #3, #588 ) ;
#310 = LINE ( 'NONE', #836, #904 ) ;
#311 = CARTESIAN_POINT ( 'NONE',  ( -0.2819999999999999729, 0.0000000000000000000, 0.03200000000000000067 ) ) ;
#312 = PLANE ( 'NONE',  #501 ) ;
#313 = LINE ( 'NONE', #547, #933 ) ;
#314 = ORIENTED_EDGE ( 'NONE', *, *, #318, .T. ) ;
#315 = AXIS2_PLACEMENT_3D ( 'NONE', #677, #533, #24 ) ;
#316 = DIRECTION ( 'NONE',  ( -0.0000000000000000000, 0.0000000000000000000, 1.000000000000000000 ) ) ;
#317 = CARTESIAN_POINT ( 'NONE',  ( -0.4291353588867237723, 0.5025852049419125001, 0.03200000000000000067 ) ) ;
#318 = EDGE_CURVE ( 'NONE', #376, #842, #497, .T. ) ;
#319 = DIRECTION ( 'NONE',  ( 1.000000000000000000, 0.0000000000000000000, 0.0000000000000000000 ) ) ;
#320 = CARTESIAN_POINT ( 'NONE',  ( -0.4019999999999999685, 0.4799999999999999822, 0.03200000000000000067 ) ) ;
#321 = DIRECTION ( 'NONE',  ( -0.0000000000000000000, -0.0000000000000000000, -1.000000000000000000 ) ) ;
#322 = CARTESIAN_POINT ( 'NONE',  ( 0.1876961067870537014, 0.07191085799086931185, 0.03200000000000000067 ) ) ;
#323 = AXIS2_PLACEMENT_3D ( 'NONE', #139, #963, #148 ) ;
#324 = DIRECTION ( 'NONE',  ( -0.0000000000000000000, 0.0000000000000000000, 1.000000000000000000 ) ) ;
#325 = EDGE_CURVE ( 'NONE', #202, #893, #949, .T. ) ;
#326 = CARTESIAN_POINT ( 'NONE',  ( 0.0000000000000000000, 0.0000000000000000000, 0.03200000000000000067 ) ) ;
#327 = CARTESIAN_POINT ( 'NONE',  ( 0.0000000000000000000, 0.0000000000000000000, 0.0000000000000000000 ) ) ;
#328 =( LENGTH_UNIT ( ) NAMED_UNIT ( * ) SI_UNIT ( $, .METRE. ) );
#329 = ADVANCED_FACE ( 'NONE', ( #425 ), #731, .T. ) ;
#330 = AXIS2_PLACEMENT_3D ( 'NONE', #839, #316, #876 ) ;
#331 = ORIENTED_EDGE ( 'NONE', *, *, #546, .T. ) ;
#332 = DIRECTION ( 'NONE',  ( -1.000000000000000000, 0.0000000000000000000, 0.0000000000000000000 ) ) ;
#333 = DIRECTION ( 'NONE',  ( 0.0000000000000000000, -0.0000000000000000000, -1.000000000000000000 ) ) ;
#334 = CARTESIAN_POINT ( 'NONE',  ( 0.5050000000000000044, 0.4939999999999999947, 0.03200000000000000067 ) ) ;
#335 = DIRECTION ( 'NONE',  ( 1.000000000000000000, 0.0000000000000000000, 0.0000000000000000000 ) ) ;
#336 = ORIENTED_EDGE ( 'NONE', *, *, #185, .F. ) ;
#337 = DIRECTION ( 'NONE',  ( 1.000000000000000000, 3.658724991514636119E-15, 0.0000000000000000000 ) ) ;
#338 = LINE ( 'NONE', #623, #673 ) ;
#339 = LINE ( 'NONE', #347, #771 ) ;
#340 = ORIENTED_EDGE ( 'NONE', *, *, #419, .T. ) ;
#341 = DIRECTION ( 'NONE',  ( -1.000000000000000000, 0.0000000000000000000, 0.0000000000000000000 ) ) ;
#342 = CARTESIAN_POINT ( 'NONE',  ( -0.4580000000000000182, 0.4799999999999999822, 0.0000000000000000000 ) ) ;
#343 = ORIENTED_EDGE ( 'NONE', *, *, #690, .T. ) ;
#344 = CARTESIAN_POINT ( 'NONE',  ( 0.2656011537348094143, 0.09476300509554408391, 0.03200000000000000067 ) ) ;
#345 = CARTESIAN_POINT ( 'NONE',  ( -0.01902691792715413555, -0.2000974172601769352, 0.03200000000000000067 ) ) ;
#346 = CARTESIAN_POINT ( 'NONE',  ( -0.2010000000000000120, 0.0000000000000000000, 0.0000000000000000000 ) ) ;
#347 = CARTESIAN_POINT ( 'NONE',  ( 0.01471223434393020314, 0.01960079322403359900, 0.03200000000000000067 ) ) ;
#348 = ORIENTED_EDGE ( 'NONE', *, *, #251, .T. ) ;
#349 = DIRECTION ( 'NONE',  ( -0.0000000000000000000, 0.0000000000000000000, 1.000000000000000000 ) ) ;
#350 = AXIS2_PLACEMENT_3D ( 'NONE', #440, #937, #866 ) ;
#351 = AXIS2_PLACEMENT_3D ( 'NONE', #567, #554, #486 ) ;
#352 = EDGE_CURVE ( 'NONE', #909, #226, #680, .T. ) ;
#353 = EDGE_CURVE ( 'NONE', #832, #747, #678, .T. ) ;
#354 = ORIENTED_EDGE ( 'NONE', *, *, #191, .F. ) ;
#355 = FACE_OUTER_BOUND ( 'NONE', #158, .T. ) ;
#356 = ORIENTED_EDGE ( 'NONE', *, *, #451, .T. ) ;
#357 = CARTESIAN_POINT ( 'NONE',  ( -0.3071705229060617270, 0.6249331328088847393, 0.03200000000000000067 ) ) ;
#358 = VECTOR ( 'NONE', #482, 39.37007874015748143 ) ;
#359 = CIRCLE ( 'NONE', #695, 0.05600000000000002892 ) ;
#360 = ORIENTED_EDGE ( 'NONE', *, *, #289, .T. ) ;
#361 = DIRECTION ( 'NONE',  ( 0.2663353794397624319, 0.9638804208296161136, 0.0000000000000000000 ) ) ;
#362 = DIRECTION ( 'NONE',  ( 1.000000000000000000, 0.0000000000000000000, 0.0000000000000000000 ) ) ;
#363 = EDGE_CURVE ( 'NONE', #406, #585, #359, .T. ) ;
#364 = CARTESIAN_POINT ( 'NONE',  ( 0.4489999999999999547, 0.4939999999999999947, 0.0000000000000000000 ) ) ;
#365 = UNCERTAINTY_MEASURE_WITH_UNIT (LENGTH_MEASURE( 1.000000000000000082E-05 ), #481, 'distance_accuracy_value', 'NONE');
#366 = PRODUCT_DEFINITION_FORMATION_WITH_SPECIFIED_SOURCE ( 'ANY', '', #384, .NOT_KNOWN. ) ;
#367 = ORIENTED_EDGE ( 'NONE', *, *, #907, .F. ) ;
#368 = ORIENTED_EDGE ( 'NONE', *, *, #353, .F. ) ;
#369 = EDGE_CURVE ( 'NONE', #537, #402, #157, .T. ) ;
#370 = DIRECTION ( 'NONE',  ( 1.000000000000000000, 0.0000000000000000000, 0.0000000000000000000 ) ) ;
#371 = DIRECTION ( 'NONE',  ( -0.0000000000000000000, -0.0000000000000000000, -1.000000000000000000 ) ) ;
#372 = AXIS2_PLACEMENT_3D ( 'NONE', #754, #438, #897 ) ;
#373 = ORIENTED_EDGE ( 'NONE', *, *, #594, .F. ) ;
#374 = AXIS2_PLACEMENT_3D ( 'NONE', #688, #324, #319 ) ;
#375 = EDGE_CURVE ( 'NONE', #215, #661, #310, .T. ) ;
#376 = VERTEX_POINT ( 'NONE', #382 ) ;
#377 = DIRECTION ( 'NONE',  ( -0.0000000000000000000, 0.0000000000000000000, 1.000000000000000000 ) ) ;
#378 = ORIENTED_EDGE ( 'NONE', *, *, #883, .T. ) ;
#379 = VECTOR ( 'NONE', #719, 39.37007874015748143 ) ;
#380 = ORIENTED_EDGE ( 'NONE', *, *, #959, .F. ) ;
#381 = CARTESIAN_POINT ( 'NONE',  ( -0.01166947824865572324, 0.01445464073096328246, 0.03200000000000000067 ) ) ;
#382 = CARTESIAN_POINT ( 'NONE',  ( -0.5180952844138221325, 0.5212582500338840408, 0.0000000000000000000 ) ) ;
#383 = ORIENTED_EDGE ( 'NONE', *, *, #942, .F. ) ;
#384 = PRODUCT ( 'semi circle (1)', 'semi circle (1)', '', ( #651 ) ) ;
#385 = AXIS2_PLACEMENT_3D ( 'NONE', #327, #532, #39 ) ;
#386 = FACE_OUTER_BOUND ( 'NONE', #11, .T. ) ;
#387 = CARTESIAN_POINT ( 'NONE',  ( 0.0000000000000000000, 0.0000000000000000000, 0.03200000000000000067 ) ) ;
#388 = ADVANCED_FACE ( 'NONE', ( #167 ), #298, .F. ) ;
#389 = FACE_OUTER_BOUND ( 'NONE', #304, .T. ) ;
#390 = CYLINDRICAL_SURFACE ( 'NONE', #19, 0.05600000000000002892 ) ;
#391 = CARTESIAN_POINT ( 'NONE',  ( -0.02482065327274387764, 0.2691290414113707286, 0.03200000000000000067 ) ) ;
#392 = ORIENTED_EDGE ( 'NONE', *, *, #198, .F. ) ;
#393 = LINE ( 'NONE', #717, #145 ) ;
#394 = DIRECTION ( 'NONE',  ( 0.6281603965050353011, -0.7780838748249682135, 0.0000000000000000000 ) ) ;
#395 = PRESENTATION_STYLE_ASSIGNMENT (( #182 ) ) ;
#396 = PLANE ( 'NONE',  #430 ) ;
#397 = AXIS2_PLACEMENT_3D ( 'NONE', #270, #476, #787 ) ;
#398 = AXIS2_PLACEMENT_3D ( 'NONE', #217, #428, #733 ) ;
#399 = FACE_OUTER_BOUND ( 'NONE', #626, .T. ) ;
#400 = DIRECTION ( 'NONE',  ( -0.0000000000000000000, -0.0000000000000000000, -1.000000000000000000 ) ) ;
#401 = EDGE_CURVE ( 'NONE', #585, #406, #92, .T. ) ;
#402 = VERTEX_POINT ( 'NONE', #528 ) ;
#403 = LINE ( 'NONE', #610, #119 ) ;
#404 = DIRECTION ( 'NONE',  ( 0.0000000000000000000, 0.0000000000000000000, -1.000000000000000000 ) ) ;
#405 = DIRECTION ( 'NONE',  ( -1.000000000000000000, 0.0000000000000000000, 0.0000000000000000000 ) ) ;
#406 = VERTEX_POINT ( 'NONE', #10 ) ;
#407 = PLANE ( 'NONE',  #397 ) ;
#408 = DIRECTION ( 'NONE',  ( 0.7997719787491029964, -0.6003039080397064575, 0.0000000000000000000 ) ) ;
#409 = EDGE_LOOP ( 'NONE', ( #307, #551 ) ) ;
#410 = EDGE_CURVE ( 'NONE', #747, #211, #171, .T. ) ;
#411 = ORIENTED_EDGE ( 'NONE', *, *, #500, .F. ) ;
#412 = LENGTH_MEASURE_WITH_UNIT ( LENGTH_MEASURE( 0.02539999999999999897 ), #776 );
#413 =( GEOMETRIC_REPRESENTATION_CONTEXT ( 3 ) GLOBAL_UNCERTAINTY_ASSIGNED_CONTEXT ( ( #365 ) ) GLOBAL_UNIT_ASSIGNED_CONTEXT ( ( #481, #490, #282 ) ) REPRESENTATION_CONTEXT ( 'NONE', 'WORKASPACE' ) );
#414 = CARTESIAN_POINT ( 'NONE',  ( -0.1223493638630530900, 0.1517280864927831596, 0.03200000000000000067 ) ) ;
#415 = CARTESIAN_POINT ( 'NONE',  ( 0.5195595990549071175, 0.4433249446028640350, 0.03200000000000000067 ) ) ;
#416 = ORIENTED_EDGE ( 'NONE', *, *, #325, .T. ) ;
#417 = CARTESIAN_POINT ( 'NONE',  ( 0.01471223434393020314, 0.01960079322403359900, 0.03200000000000000067 ) ) ;
#418 = VERTEX_POINT ( 'NONE', #833 ) ;
#419 = EDGE_CURVE ( 'NONE', #22, #149, #448, .T. ) ;
#420 = DIRECTION ( 'NONE',  ( 0.8974486949742920272, 0.4411188500721092698, 0.0000000000000000000 ) ) ;
#421 = LINE ( 'NONE', #266, #728 ) ;
#422 = VERTEX_POINT ( 'NONE', #891 ) ;
#423 = AXIS2_PLACEMENT_3D ( 'NONE', #417, #492, #408 ) ;
#424 = EDGE_CURVE ( 'NONE', #61, #662, #445, .T. ) ;
#425 = FACE_OUTER_BOUND ( 'NONE', #484, .T. ) ;
#426 = ORIENTED_EDGE ( 'NONE', *, *, #500, .T. ) ;
#427 = EDGE_LOOP ( 'NONE', ( #480, #229, #125, #150 ) ) ;
#428 = DIRECTION ( 'NONE',  ( -0.0000000000000000000, 0.0000000000000000000, 1.000000000000000000 ) ) ;
#429 = EDGE_LOOP ( 'NONE', ( #336, #510, #941, #180 ) ) ;
#430 = AXIS2_PLACEMENT_3D ( 'NONE', #693, #923, #199 ) ;
#431 = AXIS2_PLACEMENT_3D ( 'NONE', #824, #441, #100 ) ;
#432 = ORIENTED_EDGE ( 'NONE', *, *, #942, .T. ) ;
#433 = DIRECTION ( 'NONE',  ( 1.000000000000000000, 0.0000000000000000000, 0.0000000000000000000 ) ) ;
#434 = EDGE_LOOP ( 'NONE', ( #813, #140, #609, #452 ) ) ;
#435 = CIRCLE ( 'NONE', #112, 0.03999999999999998002 ) ;
#436 = CARTESIAN_POINT ( 'NONE',  ( -0.5140000000000000124, 0.4799999999999999822, 0.03200000000000000067 ) ) ;
#437 = ORIENTED_EDGE ( 'NONE', *, *, #352, .T. ) ;
#438 = DIRECTION ( 'NONE',  ( -0.0000000000000000000, -0.0000000000000000000, -1.000000000000000000 ) ) ;
#439 = ADVANCED_FACE ( 'NONE', ( #162 ), #751, .T. ) ;
#440 = CARTESIAN_POINT ( 'NONE',  ( -0.4933926288097839064, 0.4710011231153236611, 0.0000000000000000000 ) ) ;
#441 = DIRECTION ( 'NONE',  ( 0.0000000000000000000, 0.0000000000000000000, -1.000000000000000000 ) ) ;
#442 = ORIENTED_EDGE ( 'NONE', *, *, #446, .F. ) ;
#443 = AXIS2_PLACEMENT_3D ( 'NONE', #473, #250, #51 ) ;
#444 = EDGE_LOOP ( 'NONE', ( #239, #201, #368, #780, #801, #437, #206, #820, #710, #865, #105, #737, #635, #961, #671, #280, #411, #900, #877, #86, #518, #701 ) ) ;
#445 = CIRCLE ( 'NONE', #309, 0.05600000000000002892 ) ;
#446 = EDGE_CURVE ( 'NONE', #40, #947, #237, .T. ) ;
#447 = CARTESIAN_POINT ( 'NONE',  ( 0.0000000000000000000, 0.0000000000000000000, 0.03200000000000000067 ) ) ;
#448 = LINE ( 'NONE', #593, #120 ) ;
#449 = EDGE_LOOP ( 'NONE', ( #96, #727, #657, #884 ) ) ;
#450 = DIRECTION ( 'NONE',  ( -0.0000000000000000000, -0.0000000000000000000, -1.000000000000000000 ) ) ;
#451 = EDGE_CURVE ( 'NONE', #64, #221, #29, .T. ) ;
#452 = ORIENTED_EDGE ( 'NONE', *, *, #722, .T. ) ;
#453 = AXIS2_PLACEMENT_3D ( 'NONE', #763, #38, #615 ) ;
#454 = DIRECTION ( 'NONE',  ( -0.2663353794397624319, -0.9638804208296161136, 0.0000000000000000000 ) ) ;
#455 = ADVANCED_FACE ( 'NONE', ( #306 ), #602, .T. ) ;
#456 = ORIENTED_EDGE ( 'NONE', *, *, #181, .F. ) ;
#457 = DIRECTION ( 'NONE',  ( 1.000000000000000000, 0.0000000000000000000, 0.0000000000000000000 ) ) ;
#458 = CARTESIAN_POINT ( 'NONE',  ( -0.5180952844138221325, 0.5212582500338840408, 0.03200000000000000067 ) ) ;
#459 = CARTESIAN_POINT ( 'NONE',  ( 0.4843826168506251695, 0.4868976415930622581, 0.0000000000000000000 ) ) ;
#460 = ORIENTED_EDGE ( 'NONE', *, *, #419, .F. ) ;
#461 = CARTESIAN_POINT ( 'NONE',  ( 0.02430010935480580309, 0.2699821960238507068, 0.0000000000000000000 ) ) ;
#462 = CARTESIAN_POINT ( 'NONE',  ( -0.4019999999999999685, 0.4799999999999999822, 0.0000000000000000000 ) ) ;
#463 = FACE_OUTER_BOUND ( 'NONE', #15, .T. ) ;
#464 = CARTESIAN_POINT ( 'NONE',  ( -0.04083656068653812587, -0.2790275529608046701, 0.0000000000000000000 ) ) ;
#465 = ADVANCED_FACE ( 'NONE', ( #711 ), #888, .T. ) ;
#466 = FACE_BOUND ( 'NONE', #409, .T. ) ;
#467 = AXIS2_PLACEMENT_3D ( 'NONE', #927, #930, #922 ) ;
#468 = VECTOR ( 'NONE', #819, 39.37007874015748854 ) ;
#469 = FACE_OUTER_BOUND ( 'NONE', #132, .T. ) ;
#470 = CARTESIAN_POINT ( 'NONE',  ( -0.4933926288097839064, 0.4710011231153236611, 0.03200000000000000067 ) ) ;
#471 = DIRECTION ( 'NONE',  ( -0.0000000000000000000, -0.0000000000000000000, -1.000000000000000000 ) ) ;
#472 = CARTESIAN_POINT ( 'NONE',  ( 0.4412198479097603210, 0.5672011721945811047, 0.03200000000000000067 ) ) ;
#473 = CARTESIAN_POINT ( 'NONE',  ( 0.2634448426570215052, 0.1851507895673608350, 0.0000000000000000000 ) ) ;
#474 = DIMENSIONAL_EXPONENTS ( 1.000000000000000000, 0.0000000000000000000, 0.0000000000000000000, 0.0000000000000000000, 0.0000000000000000000, 0.0000000000000000000, 0.0000000000000000000 ) ;
#475 = EDGE_CURVE ( 'NONE', #581, #207, #605, .T. ) ;
#476 = DIRECTION ( 'NONE',  ( 0.2814735679507068822, -0.9595689816501463687, 0.0000000000000000000 ) ) ;
#477 =( CONVERSION_BASED_UNIT ( 'INCH', #632 ) LENGTH_UNIT ( ) NAMED_UNIT ( #474 ) );
#478 = CARTESIAN_POINT ( 'NONE',  ( 0.2818334567554453551, 0.6376481959091955254, 0.0000000000000000000 ) ) ;
#479 = ORIENTED_EDGE ( 'NONE', *, *, #736, .F. ) ;
#480 = ORIENTED_EDGE ( 'NONE', *, *, #160, .T. ) ;
#481 =( CONVERSION_BASED_UNIT ( 'INCH', #412 ) LENGTH_UNIT ( ) NAMED_UNIT ( #946 ) );
#482 = DIRECTION ( 'NONE',  ( -0.0000000000000000000, -0.0000000000000000000, -1.000000000000000000 ) ) ;
#483 = CARTESIAN_POINT ( 'NONE',  ( -0.2819999999999999729, 0.0000000000000000000, 0.03200000000000000067 ) ) ;
#484 = EDGE_LOOP ( 'NONE', ( #524, #604, #163, #758 ) ) ;
#485 = EDGE_CURVE ( 'NONE', #202, #747, #78, .T. ) ;
#486 = DIRECTION ( 'NONE',  ( 1.000000000000000000, 0.0000000000000000000, 0.0000000000000000000 ) ) ;
#487 = EDGE_LOOP ( 'NONE', ( #718, #790, #392, #74 ) ) ;
#488 = CIRCLE ( 'NONE', #443, 0.04000000000000001471 ) ;
#489 = EDGE_LOOP ( 'NONE', ( #130, #679, #479, #288 ) ) ;
#490 =( NAMED_UNIT ( * ) PLANE_ANGLE_UNIT ( ) SI_UNIT ( $, .RADIAN. ) );
#491 = CARTESIAN_POINT ( 'NONE',  ( -0.02482065327274387764, 0.2691290414113707286, 0.0000000000000000000 ) ) ;
#492 = DIRECTION ( 'NONE',  ( -0.6003039080397064575, -0.7997719787491029964, 0.0000000000000000000 ) ) ;
#493 = CARTESIAN_POINT ( 'NONE',  ( -0.5493926288097840116, 0.4710011231153236611, 0.0000000000000000000 ) ) ;
#494 = EDGE_CURVE ( 'NONE', #871, #825, #222, .T. ) ;
#495 = VERTEX_POINT ( 'NONE', #296 ) ;
#496 = DIRECTION ( 'NONE',  ( 0.0000000000000000000, 0.0000000000000000000, 1.000000000000000000 ) ) ;
#497 = LINE ( 'NONE', #725, #308 ) ;
#498 = EDGE_LOOP ( 'NONE', ( #648, #597 ) ) ;
#499 = ORIENTED_EDGE ( 'NONE', *, *, #539, .T. ) ;
#500 = EDGE_CURVE ( 'NONE', #207, #291, #620, .T. ) ;
#501 = AXIS2_PLACEMENT_3D ( 'NONE', #381, #394, #27 ) ;
#502 = EDGE_LOOP ( 'NONE', ( #765, #882, #838, #76 ) ) ;
#503 = DIRECTION ( 'NONE',  ( 1.000000000000000000, 0.0000000000000000000, 0.0000000000000000000 ) ) ;
#504 = DIRECTION ( 'NONE',  ( -0.0000000000000000000, -0.0000000000000000000, -1.000000000000000000 ) ) ;
#505 = DIRECTION ( 'NONE',  ( -0.7997719787491029964, 0.6003039080397065685, 0.0000000000000000000 ) ) ;
#506 = VECTOR ( 'NONE', #208, 39.37007874015748854 ) ;
#507 =( NAMED_UNIT ( * ) PLANE_ANGLE_UNIT ( ) SI_UNIT ( $, .RADIAN. ) );
#508 = VERTEX_POINT ( 'NONE', #493 ) ;
#509 = DIRECTION ( 'NONE',  ( -0.4411188500721093253, 0.8974486949742921382, 0.0000000000000000000 ) ) ;
#510 = ORIENTED_EDGE ( 'NONE', *, *, #740, .T. ) ;
#511 = EDGE_CURVE ( 'NONE', #47, #106, #209, .T. ) ;
#512 = ORIENTED_EDGE ( 'NONE', *, *, #8, .F. ) ;
#513 = CARTESIAN_POINT ( 'NONE',  ( 0.2383184267968200543, 0.2162741445603595936, 0.03200000000000000067 ) ) ;
#514 = DIRECTION ( 'NONE',  ( 0.0000000000000000000, -0.0000000000000000000, -1.000000000000000000 ) ) ;
#515 = ORIENTED_EDGE ( 'NONE', *, *, #837, .T. ) ;
#516 = EDGE_CURVE ( 'NONE', #291, #947, #738, .T. ) ;
#517 = PRODUCT_DEFINITION ( 'UNKNOWN', '', #366, #799 ) ;
#518 = ORIENTED_EDGE ( 'NONE', *, *, #616, .T. ) ;
#519 = VECTOR ( 'NONE', #123, 39.37007874015748143 ) ;
#520 = VECTOR ( 'NONE', #454, 39.37007874015748143 ) ;
#521 = LINE ( 'NONE', #169, #664 ) ;
#522 = EDGE_CURVE ( 'NONE', #662, #61, #165, .T. ) ;
#523 = DIRECTION ( 'NONE',  ( 1.000000000000000000, 0.0000000000000000000, 0.0000000000000000000 ) ) ;
#524 = ORIENTED_EDGE ( 'NONE', *, *, #43, .T. ) ;
#525 = CYLINDRICAL_SURFACE ( 'NONE', #372, 0.05600000000000002892 ) ;
#526 = ADVANCED_FACE ( 'NONE', ( #578, #729, #355 ), #953, .F. ) ;
#527 = CARTESIAN_POINT ( 'NONE',  ( -0.01166947824865572324, 0.01445464073096328246, 0.0000000000000000000 ) ) ;
#528 = CARTESIAN_POINT ( 'NONE',  ( -0.5140000000000000124, 0.4799999999999999822, 0.0000000000000000000 ) ) ;
#529 = ORIENTED_EDGE ( 'NONE', *, *, #8, .T. ) ;
#530 = DIRECTION ( 'NONE',  ( -0.9595689816501462577, -0.2814735679507067712, 0.0000000000000000000 ) ) ;
#531 = DIRECTION ( 'NONE',  ( -0.7780838748249682135, -0.6281603965050353011, 0.0000000000000000000 ) ) ;
#532 = DIRECTION ( 'NONE',  ( -0.0000000000000000000, 0.0000000000000000000, 1.000000000000000000 ) ) ;
#533 = DIRECTION ( 'NONE',  ( 0.0000000000000000000, 0.0000000000000000000, -1.000000000000000000 ) ) ;
#534 = AXIS2_PLACEMENT_3D ( 'NONE', #127, #59, #337 ) ;
#535 = DIRECTION ( 'NONE',  ( -0.0000000000000000000, 0.0000000000000000000, 1.000000000000000000 ) ) ;
#536 = SURFACE_STYLE_FILL_AREA ( #851 ) ;
#537 = VERTEX_POINT ( 'NONE', #31 ) ;
#538 = DIRECTION ( 'NONE',  ( 0.0000000000000000000, -0.0000000000000000000, -1.000000000000000000 ) ) ;
#539 = EDGE_CURVE ( 'NONE', #47, #241, #18, .T. ) ;
#540 = CARTESIAN_POINT ( 'NONE',  ( -0.5270096476600073521, 0.4262138923053737649, 0.0000000000000000000 ) ) ;
#541 = PLANE ( 'NONE',  #653 ) ;
#542 = CIRCLE ( 'NONE', #739, 0.05600000000000002892 ) ;
#543 = EDGE_LOOP ( 'NONE', ( #579, #367, #667, #929 ) ) ;
#544 = VECTOR ( 'NONE', #531, 39.37007874015748143 ) ;
#545 = FACE_OUTER_BOUND ( 'NONE', #252, .T. ) ;
#546 = EDGE_CURVE ( 'NONE', #291, #106, #910, .T. ) ;
#547 = CARTESIAN_POINT ( 'NONE',  ( 0.1202660440206858861, 0.1602278624452809497, 0.03200000000000000067 ) ) ;
#548 = VERTEX_POINT ( 'NONE', #743 ) ;
#549 = DIRECTION ( 'NONE',  ( 1.000000000000000000, 0.0000000000000000000, 0.0000000000000000000 ) ) ;
#550 = VECTOR ( 'NONE', #807, 39.37007874015748143 ) ;
#551 = ORIENTED_EDGE ( 'NONE', *, *, #401, .F. ) ;
#552 = DIRECTION ( 'NONE',  ( -0.0000000000000000000, 0.0000000000000000000, 1.000000000000000000 ) ) ;
#553 = FACE_OUTER_BOUND ( 'NONE', #576, .T. ) ;
#554 = DIRECTION ( 'NONE',  ( -0.0000000000000000000, 0.0000000000000000000, 1.000000000000000000 ) ) ;
#555 = ORIENTED_EDGE ( 'NONE', *, *, #494, .F. ) ;
#556 = ADVANCED_FACE ( 'NONE', ( #601 ), #87, .F. ) ;
#557 = DIRECTION ( 'NONE',  ( 1.000000000000000000, 0.0000000000000000000, 0.0000000000000000000 ) ) ;
#558 = ADVANCED_FACE ( 'NONE', ( #161 ), #525, .F. ) ;
#559 = VERTEX_POINT ( 'NONE', #231 ) ;
#560 = DIRECTION ( 'NONE',  ( 0.0000000000000000000, 0.0000000000000000000, -1.000000000000000000 ) ) ;
#561 = ORIENTED_EDGE ( 'NONE', *, *, #71, .F. ) ;
#562 = ORIENTED_EDGE ( 'NONE', *, *, #704, .T. ) ;
#563 = CARTESIAN_POINT ( 'NONE',  ( 0.02430010935480580309, 0.2699821960238507068, 0.03200000000000000067 ) ) ;
#564 = CIRCLE ( 'NONE', #188, 0.2819999999999999729 ) ;
#565 = LINE ( 'NONE', #873, #800 ) ;
#566 = CARTESIAN_POINT ( 'NONE',  ( -0.5270096476600073521, 0.4262138923053737649, 0.03200000000000000067 ) ) ;
#567 = CARTESIAN_POINT ( 'NONE',  ( 0.0000000000000000000, 0.0000000000000000000, 0.0000000000000000000 ) ) ;
#568 = EDGE_CURVE ( 'NONE', #226, #79, #521, .T. ) ;
#569 = EDGE_LOOP ( 'NONE', ( #951, #499, #886, #255 ) ) ;
#570 = CARTESIAN_POINT ( 'NONE',  ( 0.0000000000000000000, 0.0000000000000000000, 0.03200000000000000067 ) ) ;
#571 = AXIS2_PLACEMENT_3D ( 'NONE', #857, #471, #195 ) ;
#572 = ORIENTED_EDGE ( 'NONE', *, *, #128, .F. ) ;
#573 = DIRECTION ( 'NONE',  ( -0.0000000000000000000, 0.0000000000000000000, 1.000000000000000000 ) ) ;
#574 = VECTOR ( 'NONE', #805, 39.37007874015748143 ) ;
#575 =( NAMED_UNIT ( * ) SI_UNIT ( $, .STERADIAN. ) SOLID_ANGLE_UNIT ( ) );
#576 = EDGE_LOOP ( 'NONE', ( #50, #354, #945, #432 ) ) ;
#577 = EDGE_CURVE ( 'NONE', #241, #595, #564, .T. ) ;
#578 = FACE_BOUND ( 'NONE', #753, .T. ) ;
#579 = ORIENTED_EDGE ( 'NONE', *, *, #854, .F. ) ;
#580 = ORIENTED_EDGE ( 'NONE', *, *, #676, .T. ) ;
#581 = VERTEX_POINT ( 'NONE', #322 ) ;
#582 = AXIS2_PLACEMENT_3D ( 'NONE', #668, #13, #37 ) ;
#583 = AXIS2_PLACEMENT_3D ( 'NONE', #766, #925, #685 ) ;
#584 = PRODUCT_RELATED_PRODUCT_CATEGORY ( 'part', '', ( #384 ) ) ;
#585 = VERTEX_POINT ( 'NONE', #700 ) ;
#586 = DIRECTION ( 'NONE',  ( -0.0000000000000000000, 0.0000000000000000000, 1.000000000000000000 ) ) ;
#587 = EDGE_CURVE ( 'NONE', #422, #47, #220, .T. ) ;
#588 = DIRECTION ( 'NONE',  ( 1.000000000000000000, 0.0000000000000000000, 0.0000000000000000000 ) ) ;
#589 = CIRCLE ( 'NONE', #385, 0.2819999999999999729 ) ;
#590 = APPLICATION_CONTEXT ( 'automotive_design' ) ;
#591 = ORIENTED_EDGE ( 'NONE', *, *, #401, .T. ) ;
#592 = CARTESIAN_POINT ( 'NONE',  ( -0.4580000000000000182, 0.4799999999999999822, 0.03200000000000000067 ) ) ;
#593 = CARTESIAN_POINT ( 'NONE',  ( -0.4019999999999999685, 0.4799999999999999822, 0.03200000000000000067 ) ) ;
#594 = EDGE_CURVE ( 'NONE', #406, #662, #773, .T. ) ;
#595 = VERTEX_POINT ( 'NONE', #464 ) ;
#596 = EDGE_CURVE ( 'NONE', #892, #720, #175, .T. ) ;
#597 = ORIENTED_EDGE ( 'NONE', *, *, #911, .F. ) ;
#598 = AXIS2_PLACEMENT_3D ( 'NONE', #647, #210, #129 ) ;
#599 = ORIENTED_EDGE ( 'NONE', *, *, #88, .F. ) ;
#600 = ADVANCED_FACE ( 'NONE', ( #778 ), #613, .T. ) ;
#601 = FACE_OUTER_BOUND ( 'NONE', #861, .T. ) ;
#602 = PLANE ( 'NONE',  #746 ) ;
#603 = AXIS2_PLACEMENT_3D ( 'NONE', #708, #67, #943 ) ;
#604 = ORIENTED_EDGE ( 'NONE', *, *, #88, .T. ) ;
#605 = CIRCLE ( 'NONE', #779, 0.2010000000000000120 ) ;
#606 = ADVANCED_FACE ( 'NONE', ( #545 ), #706, .F. ) ;
#607 = DIRECTION ( 'NONE',  ( -1.000000000000000000, 0.0000000000000000000, 0.0000000000000000000 ) ) ;
#608 = DIRECTION ( 'NONE',  ( -0.0000000000000000000, 0.0000000000000000000, 1.000000000000000000 ) ) ;
#609 = ORIENTED_EDGE ( 'NONE', *, *, #686, .T. ) ;
#610 = CARTESIAN_POINT ( 'NONE',  ( 0.2656011537348094143, 0.09476300509554408391, 0.03200000000000000067 ) ) ;
#611 = VECTOR ( 'NONE', #300, 39.37007874015748143 ) ;
#612 = CARTESIAN_POINT ( 'NONE',  ( -0.2334191693057296735, 0.1582387165033357912, 0.0000000000000000000 ) ) ;
#613 = CYLINDRICAL_SURFACE ( 'NONE', #583, 0.2819999999999999729 ) ;
#614 = DIRECTION ( 'NONE',  ( -0.0000000000000000000, 0.0000000000000000000, 1.000000000000000000 ) ) ;
#615 = DIRECTION ( 'NONE',  ( 1.000000000000000000, 4.878299988686181755E-15, 0.0000000000000000000 ) ) ;
#616 = EDGE_CURVE ( 'NONE', #720, #760, #852, .T. ) ;
#617 = CARTESIAN_POINT ( 'NONE',  ( -0.2665282713349111376, 0.1806839245179933384, 0.03200000000000000067 ) ) ;
#618 = CIRCLE ( 'NONE', #374, 0.05600000000000002892 ) ;
#619 = CARTESIAN_POINT ( 'NONE',  ( 0.2634448426570215052, 0.1851507895673608350, 0.03200000000000000067 ) ) ;
#620 = CIRCLE ( 'NONE', #264, 0.2010000000000000120 ) ;
#621 = CARTESIAN_POINT ( 'NONE',  ( 0.4185811665204071108, 0.5159811555511696346, 0.03200000000000000067 ) ) ;
#622 = ORIENTED_EDGE ( 'NONE', *, *, #160, .F. ) ;
#623 = CARTESIAN_POINT ( 'NONE',  ( 0.03369084767572786548, -0.009309313173556387627, 0.0000000000000000000 ) ) ;
#624 = DIRECTION ( 'NONE',  ( -0.0000000000000000000, -0.0000000000000000000, -1.000000000000000000 ) ) ;
#625 = DIRECTION ( 'NONE',  ( 0.7997719787491028853, -0.6003039080397065685, 0.0000000000000000000 ) ) ;
#626 = EDGE_LOOP ( 'NONE', ( #416, #378, #684, #272 ) ) ;
#627 = AXIS2_PLACEMENT_3D ( 'NONE', #342, #267, #640 ) ;
#628 = CARTESIAN_POINT ( 'NONE',  ( -0.4291353588867237723, 0.5025852049419125001, 0.03200000000000000067 ) ) ;
#629 = VERTEX_POINT ( 'NONE', #461 ) ;
#630 = CARTESIAN_POINT ( 'NONE',  ( -0.04083656068653812587, -0.2790275529608046701, 0.03200000000000000067 ) ) ;
#631 = LINE ( 'NONE', #265, #828 ) ;
#632 = LENGTH_MEASURE_WITH_UNIT ( LENGTH_MEASURE( 0.02539999999999999897 ), #328 );
#633 = MECHANICAL_DESIGN_GEOMETRIC_PRESENTATION_REPRESENTATION (  '', ( #858 ), #413 ) ;
#634 = EDGE_CURVE ( 'NONE', #892, #581, #55, .T. ) ;
#635 = ORIENTED_EDGE ( 'NONE', *, *, #854, .T. ) ;
#636 = CARTESIAN_POINT ( 'NONE',  ( 0.5050000000000000044, 0.4939999999999999947, 0.0000000000000000000 ) ) ;
#637 = LINE ( 'NONE', #68, #379 ) ;
#638 = ORIENTED_EDGE ( 'NONE', *, *, #767, .F. ) ;
#639 = CARTESIAN_POINT ( 'NONE',  ( 0.0000000000000000000, 0.0000000000000000000, 0.03200000000000000067 ) ) ;
#640 = DIRECTION ( 'NONE',  ( 1.000000000000000000, 0.0000000000000000000, 0.0000000000000000000 ) ) ;
#641 = ORIENTED_EDGE ( 'NONE', *, *, #128, .T. ) ;
#642 = DIRECTION ( 'NONE',  ( -0.0000000000000000000, -0.0000000000000000000, 1.000000000000000000 ) ) ;
#643 = CARTESIAN_POINT ( 'NONE',  ( -0.1223493638630530900, 0.1517280864927831596, 0.0000000000000000000 ) ) ;
#644 = FACE_OUTER_BOUND ( 'NONE', #489, .T. ) ;
#645 = CARTESIAN_POINT ( 'NONE',  ( -0.4291353588867237723, 0.5025852049419125001, 0.0000000000000000000 ) ) ;
#646 = ORIENTED_EDGE ( 'NONE', *, *, #305, .T. ) ;
#647 = CARTESIAN_POINT ( 'NONE',  ( -0.2665282713349111376, 0.1806839245179933384, 0.0000000000000000000 ) ) ;
#648 = ORIENTED_EDGE ( 'NONE', *, *, #236, .F. ) ;
#649 = CIRCLE ( 'NONE', #351, 0.2819999999999999729 ) ;
#650 = DIRECTION ( 'NONE',  ( -0.0000000000000000000, -0.0000000000000000000, 1.000000000000000000 ) ) ;
#651 = PRODUCT_CONTEXT ( 'NONE', #177, 'mechanical' ) ;
#652 = ORIENTED_EDGE ( 'NONE', *, *, #522, .F. ) ;
#653 = AXIS2_PLACEMENT_3D ( 'NONE', #284, #223, #505 ) ;
#654 = ORIENTED_EDGE ( 'NONE', *, *, #594, .T. ) ;
#655 = AXIS2_PLACEMENT_3D ( 'NONE', #759, #450, #240 ) ;
#656 = EDGE_LOOP ( 'NONE', ( #810, #591, #654, #81 ) ) ;
#657 = ORIENTED_EDGE ( 'NONE', *, *, #212, .F. ) ;
#658 = ORIENTED_EDGE ( 'NONE', *, *, #516, .F. ) ;
#659 = CARTESIAN_POINT ( 'NONE',  ( 0.0000000000000000000, 0.0000000000000000000, 0.03200000000000000067 ) ) ;
#660 = FACE_OUTER_BOUND ( 'NONE', #955, .T. ) ;
#661 = VERTEX_POINT ( 'NONE', #540 ) ;
#662 = VERTEX_POINT ( 'NONE', #36 ) ;
#663 = EDGE_CURVE ( 'NONE', #666, #40, #174, .T. ) ;
#664 = VECTOR ( 'NONE', #404, 39.37007874015748143 ) ;
#665 = DIRECTION ( 'NONE',  ( -0.7997719787491029964, 0.6003039080397064575, 0.0000000000000000000 ) ) ;
#666 = VERTEX_POINT ( 'NONE', #788 ) ;
#667 = ORIENTED_EDGE ( 'NONE', *, *, #676, .F. ) ;
#668 = CARTESIAN_POINT ( 'NONE',  ( -0.4933926288097839064, 0.4710011231153236611, 0.03200000000000000067 ) ) ;
#669 = DIRECTION ( 'NONE',  ( 1.000000000000000000, 0.0000000000000000000, 0.0000000000000000000 ) ) ;
#670 = ADVANCED_FACE ( 'NONE', ( #200 ), #137, .T. ) ;
#671 = ORIENTED_EDGE ( 'NONE', *, *, #511, .T. ) ;
#672 = ORIENTED_EDGE ( 'NONE', *, *, #883, .F. ) ;
#673 = VECTOR ( 'NONE', #256, 39.37007874015748143 ) ;
#674 = VECTOR ( 'NONE', #912, 39.37007874015748143 ) ;
#675 = DIRECTION ( 'NONE',  ( 1.000000000000000000, 0.0000000000000000000, 0.0000000000000000000 ) ) ;
#676 = EDGE_CURVE ( 'NONE', #16, #215, #219, .T. ) ;
#677 = CARTESIAN_POINT ( 'NONE',  ( 0.4185811665204071108, 0.5159811555511696346, 0.03200000000000000067 ) ) ;
#678 = LINE ( 'NONE', #829, #468 ) ;
#679 = ORIENTED_EDGE ( 'NONE', *, *, #410, .T. ) ;
#680 = CIRCLE ( 'NONE', #263, 0.04000000000000000083 ) ;
#681 = VECTOR ( 'NONE', #650, 39.37007874015748143 ) ;
#682 = CYLINDRICAL_SURFACE ( 'NONE', #835, 0.04000000000000000083 ) ;
#683 = CARTESIAN_POINT ( 'NONE',  ( 0.2307187752462114272, 0.1621506914844588476, 0.03200000000000000067 ) ) ;
#684 = ORIENTED_EDGE ( 'NONE', *, *, #812, .F. ) ;
#685 = DIRECTION ( 'NONE',  ( -1.000000000000000000, 0.0000000000000000000, 0.0000000000000000000 ) ) ;
#686 = EDGE_CURVE ( 'NONE', #422, #16, #709, .T. ) ;
#687 = CYLINDRICAL_SURFACE ( 'NONE', #315, 0.05600000000000002892 ) ;
#688 = CARTESIAN_POINT ( 'NONE',  ( -0.4580000000000000182, 0.4799999999999999822, 0.03200000000000000067 ) ) ;
#689 = ORIENTED_EDGE ( 'NONE', *, *, #577, .F. ) ;
#690 = EDGE_CURVE ( 'NONE', #871, #79, #803, .T. ) ;
#691 = FACE_OUTER_BOUND ( 'NONE', #214, .T. ) ;
#692 = DIRECTION ( 'NONE',  ( -0.0000000000000000000, -0.0000000000000000000, -1.000000000000000000 ) ) ;
#693 = CARTESIAN_POINT ( 'NONE',  ( -0.1223493638630530900, 0.1517280864927831596, 0.03200000000000000067 ) ) ;
#694 = AXIS2_PLACEMENT_3D ( 'NONE', #470, #552, #110 ) ;
#695 = AXIS2_PLACEMENT_3D ( 'NONE', #303, #899, #523 ) ;
#696 = DIRECTION ( 'NONE',  ( -0.0000000000000000000, -0.0000000000000000000, -1.000000000000000000 ) ) ;
#697 = CARTESIAN_POINT ( 'NONE',  ( -0.2010000000000000120, 0.0000000000000000000, 0.03200000000000000067 ) ) ;
#698 = EDGE_CURVE ( 'NONE', #495, #69, #339, .T. ) ;
#699 = ORIENTED_EDGE ( 'NONE', *, *, #959, .T. ) ;
#700 = CARTESIAN_POINT ( 'NONE',  ( 0.5050000000000000044, 0.4939999999999999947, 0.03200000000000000067 ) ) ;
#701 = ORIENTED_EDGE ( 'NONE', *, *, #71, .T. ) ;
#702 = FACE_OUTER_BOUND ( 'NONE', #434, .T. ) ;
#703 = ORIENTED_EDGE ( 'NONE', *, *, #894, .F. ) ;
#704 = EDGE_CURVE ( 'NONE', #69, #661, #421, .T. ) ;
#705 = AXIS2_PLACEMENT_3D ( 'NONE', #768, #114, #405 ) ;
#706 = CYLINDRICAL_SURFACE ( 'NONE', #928, 0.04000000000000001471 ) ;
#707 = ORIENTED_EDGE ( 'NONE', *, *, #369, .T. ) ;
#708 = CARTESIAN_POINT ( 'NONE',  ( 0.2818334567554453551, 0.6376481959091955254, 0.03200000000000000067 ) ) ;
#709 = LINE ( 'NONE', #870, #898 ) ;
#710 = ORIENTED_EDGE ( 'NONE', *, *, #43, .F. ) ;
#711 = FACE_OUTER_BOUND ( 'NONE', #487, .T. ) ;
#712 = CIRCLE ( 'NONE', #91, 0.05600000000000002892 ) ;
#713 = ORIENTED_EDGE ( 'NONE', *, *, #848, .T. ) ;
#714 = CARTESIAN_POINT ( 'NONE',  ( 0.0000000000000000000, 0.0000000000000000000, 0.0000000000000000000 ) ) ;
#715 = DIRECTION ( 'NONE',  ( 0.7784431134371010419, 0.6277151576490348495, 0.0000000000000000000 ) ) ;
#716 = LINE ( 'NONE', #869, #506 ) ;
#717 = CARTESIAN_POINT ( 'NONE',  ( 0.1876961067870537014, 0.07191085799086931185, 0.03200000000000000067 ) ) ;
#718 = ORIENTED_EDGE ( 'NONE', *, *, #485, .F. ) ;
#719 = DIRECTION ( 'NONE',  ( 0.0000000000000000000, 0.0000000000000000000, -1.000000000000000000 ) ) ;
#720 = VERTEX_POINT ( 'NONE', #279 ) ;
#721 = ORIENTED_EDGE ( 'NONE', *, *, #446, .T. ) ;
#722 = EDGE_CURVE ( 'NONE', #16, #241, #649, .T. ) ;
#723 = APPLICATION_PROTOCOL_DEFINITION ( 'draft international standard', 'automotive_design', 1998, #177 ) ;
#724 = CARTESIAN_POINT ( 'NONE',  ( -0.4580000000000000182, 0.4799999999999999822, 0.03200000000000000067 ) ) ;
#725 = CARTESIAN_POINT ( 'NONE',  ( -0.3071705229060617270, 0.6249331328088847393, 0.0000000000000000000 ) ) ;
#726 = VECTOR ( 'NONE', #823, 39.37007874015748143 ) ;
#727 = ORIENTED_EDGE ( 'NONE', *, *, #616, .F. ) ;
#728 = VECTOR ( 'NONE', #560, 39.37007874015748143 ) ;
#729 = FACE_BOUND ( 'NONE', #23, .T. ) ;
#730 = ORIENTED_EDGE ( 'NONE', *, *, #812, .T. ) ;
#731 = PLANE ( 'NONE',  #151 ) ;
#732 = ORIENTED_EDGE ( 'NONE', *, *, #363, .T. ) ;
#733 = DIRECTION ( 'NONE',  ( 1.000000000000000000, 0.0000000000000000000, 0.0000000000000000000 ) ) ;
#734 = CIRCLE ( 'NONE', #235, 0.04000000000000000083 ) ;
#735 = VECTOR ( 'NONE', #371, 39.37007874015748143 ) ;
#736 = EDGE_CURVE ( 'NONE', #418, #211, #864, .T. ) ;
#737 = ORIENTED_EDGE ( 'NONE', *, *, #698, .F. ) ;
#738 = LINE ( 'NONE', #82, #574 ) ;
#739 = AXIS2_PLACEMENT_3D ( 'NONE', #317, #614, #108 ) ;
#740 = EDGE_CURVE ( 'NONE', #872, #508, #637, .T. ) ;
#741 = DIRECTION ( 'NONE',  ( 1.000000000000000000, -3.414809992080330699E-15, 0.0000000000000000000 ) ) ;
#742 = CARTESIAN_POINT ( 'NONE',  ( 0.4489999999999999547, 0.4939999999999999947, 0.03200000000000000067 ) ) ;
#743 = CARTESIAN_POINT ( 'NONE',  ( -0.4538380144907618319, 0.5528423318604728243, 0.03200000000000000067 ) ) ;
#744 = AXIS2_PLACEMENT_3D ( 'NONE', #247, #846, #183 ) ;
#745 = CARTESIAN_POINT ( 'NONE',  ( 0.0000000000000000000, 0.0000000000000000000, 0.0000000000000000000 ) ) ;
#746 = AXIS2_PLACEMENT_3D ( 'NONE', #903, #238, #361 ) ;
#747 = VERTEX_POINT ( 'NONE', #939 ) ;
#748 = ORIENTED_EDGE ( 'NONE', *, *, #950, .F. ) ;
#749 = EDGE_CURVE ( 'NONE', #278, #666, #205, .T. ) ;
#750 = CARTESIAN_POINT ( 'NONE',  ( -0.5493926288097840116, 0.4710011231153236611, 0.03200000000000000067 ) ) ;
#751 = CYLINDRICAL_SURFACE ( 'NONE', #431, 0.05600000000000002892 ) ;
#752 = EDGE_LOOP ( 'NONE', ( #748, #658, #331, #173 ) ) ;
#753 = EDGE_LOOP ( 'NONE', ( #515, #348 ) ) ;
#754 = CARTESIAN_POINT ( 'NONE',  ( 0.4489999999999999547, 0.4939999999999999947, 0.03200000000000000067 ) ) ;
#755 = VECTOR ( 'NONE', #795, 39.37007874015748854 ) ;
#756 = DIRECTION ( 'NONE',  ( -0.9595689816501462577, -0.2814735679507067712, 0.0000000000000000000 ) ) ;
#757 = CARTESIAN_POINT ( 'NONE',  ( 0.5070212982399783241, 0.5381176582364738392, 0.03200000000000000067 ) ) ;
#758 = ORIENTED_EDGE ( 'NONE', *, *, #875, .T. ) ;
#759 = CARTESIAN_POINT ( 'NONE',  ( 0.2634448426570215052, 0.1851507895673608350, 0.03200000000000000067 ) ) ;
#760 = VERTEX_POINT ( 'NONE', #187 ) ;
#761 = ADVANCED_FACE ( 'NONE', ( #691 ), #682, .F. ) ;
#762 = DIRECTION ( 'NONE',  ( -0.0000000000000000000, -0.0000000000000000000, -1.000000000000000000 ) ) ;
#763 = CARTESIAN_POINT ( 'NONE',  ( 0.4185811665204071108, 0.5159811555511696346, 0.0000000000000000000 ) ) ;
#764 = CYLINDRICAL_SURFACE ( 'NONE', #178, 0.03999999999999998002 ) ;
#765 = ORIENTED_EDGE ( 'NONE', *, *, #690, .F. ) ;
#766 = CARTESIAN_POINT ( 'NONE',  ( 0.0000000000000000000, 0.0000000000000000000, 0.03200000000000000067 ) ) ;
#767 = EDGE_CURVE ( 'NONE', #207, #40, #46, .T. ) ;
#768 = CARTESIAN_POINT ( 'NONE',  ( -0.4580000000000000182, 0.4799999999999999822, 0.03200000000000000067 ) ) ;
#769 = CIRCLE ( 'NONE', #822, 0.05600000000000002892 ) ;
#770 = CARTESIAN_POINT ( 'NONE',  ( -0.2819999999999999729, 0.0000000000000000000, 0.0000000000000000000 ) ) ;
#771 = VECTOR ( 'NONE', #271, 39.37007874015748854 ) ;
#772 = ORIENTED_EDGE ( 'NONE', *, *, #198, .T. ) ;
#773 = LINE ( 'NONE', #107, #791 ) ;
#774 = FACE_OUTER_BOUND ( 'NONE', #444, .T. ) ;
#775 = ADVANCED_FACE ( 'NONE', ( #257, #466, #774 ), #117, .T. ) ;
#776 =( LENGTH_UNIT ( ) NAMED_UNIT ( * ) SI_UNIT ( $, .METRE. ) );
#777 = VERTEX_POINT ( 'NONE', #458 ) ;
#778 = FACE_OUTER_BOUND ( 'NONE', #569, .T. ) ;
#779 = AXIS2_PLACEMENT_3D ( 'NONE', #639, #349, #62 ) ;
#780 = ORIENTED_EDGE ( 'NONE', *, *, #131, .T. ) ;
#781 = DIRECTION ( 'NONE',  ( 1.000000000000000000, 0.0000000000000000000, 0.0000000000000000000 ) ) ;
#782 = ADVANCED_FACE ( 'NONE', ( #399 ), #312, .T. ) ;
#783 = FACE_OUTER_BOUND ( 'NONE', #427, .T. ) ;
#784 = DIRECTION ( 'NONE',  ( 0.0000000000000000000, -0.0000000000000000000, -1.000000000000000000 ) ) ;
#785 = ORIENTED_EDGE ( 'NONE', *, *, #369, .F. ) ;
#786 = LINE ( 'NONE', #630, #952 ) ;
#787 = DIRECTION ( 'NONE',  ( 0.9595689816501462577, 0.2814735679507068267, 0.0000000000000000000 ) ) ;
#788 = CARTESIAN_POINT ( 'NONE',  ( 0.1876961067870537014, 0.07191085799086931185, 0.0000000000000000000 ) ) ;
#789 = ADVANCED_FACE ( 'NONE', ( #244 ), #390, .F. ) ;
#790 = ORIENTED_EDGE ( 'NONE', *, *, #93, .F. ) ;
#791 = VECTOR ( 'NONE', #624, 39.37007874015748143 ) ;
#792 = LINE ( 'NONE', #414, #902 ) ;
#793 = CARTESIAN_POINT ( 'NONE',  ( 0.3834291176920610611, 0.5595739699036472725, 0.03200000000000000067 ) ) ;
#794 = CARTESIAN_POINT ( 'NONE',  ( -0.01902691792715413555, -0.2000974172601769352, 0.0000000000000000000 ) ) ;
#795 = DIRECTION ( 'NONE',  ( 0.9146431543466345682, -0.4042621676670205555, 0.0000000000000000000 ) ) ;
#796 = ORIENTED_EDGE ( 'NONE', *, *, #950, .T. ) ;
#797 = CIRCLE ( 'NONE', #248, 0.05600000000000002892 ) ;
#798 = DIRECTION ( 'NONE',  ( 0.0000000000000000000, 0.0000000000000000000, -1.000000000000000000 ) ) ;
#799 = PRODUCT_DEFINITION_CONTEXT ( 'detailed design', #590, 'design' ) ;
#800 = VECTOR ( 'NONE', #141, 39.37007874015748143 ) ;
#801 = ORIENTED_EDGE ( 'NONE', *, *, #289, .F. ) ;
#802 = CARTESIAN_POINT ( 'NONE',  ( -0.4580000000000000182, 0.4799999999999999822, 0.0000000000000000000 ) ) ;
#803 = LINE ( 'NONE', #142, #98 ) ;
#804 = ORIENTED_EDGE ( 'NONE', *, *, #568, .F. ) ;
#805 = DIRECTION ( 'NONE',  ( -0.0000000000000000000, -0.0000000000000000000, -1.000000000000000000 ) ) ;
#806 = ORIENTED_EDGE ( 'NONE', *, *, #375, .T. ) ;
#807 = DIRECTION ( 'NONE',  ( -0.7780838748249682135, -0.6281603965050353011, 0.0000000000000000000 ) ) ;
#808 = ORIENTED_EDGE ( 'NONE', *, *, #305, .F. ) ;
#809 = CIRCLE ( 'NONE', #85, 0.05600000000000002892 ) ;
#810 = ORIENTED_EDGE ( 'NONE', *, *, #848, .F. ) ;
#811 = CIRCLE ( 'NONE', #627, 0.05600000000000002892 ) ;
#812 = EDGE_CURVE ( 'NONE', #559, #890, #855, .T. ) ;
#813 = ORIENTED_EDGE ( 'NONE', *, *, #539, .F. ) ;
#814 = CARTESIAN_POINT ( 'NONE',  ( 0.4843826168506251695, 0.4868976415930622581, 0.03200000000000000067 ) ) ;
#815 = VECTOR ( 'NONE', #938, 39.37007874015748143 ) ;
#816 = CARTESIAN_POINT ( 'NONE',  ( -0.4933926288097839064, 0.4710011231153236611, 0.03200000000000000067 ) ) ;
#817 = CARTESIAN_POINT ( 'NONE',  ( 0.3834291176920610611, 0.5595739699036472725, 0.0000000000000000000 ) ) ;
#818 = EDGE_CURVE ( 'NONE', #273, #418, #887, .T. ) ;
#819 = DIRECTION ( 'NONE',  ( 0.9146431543466345682, -0.4042621676670205555, 0.0000000000000000000 ) ) ;
#820 = ORIENTED_EDGE ( 'NONE', *, *, #924, .T. ) ;
#821 = DIRECTION ( 'NONE',  ( -0.0000000000000000000, -0.0000000000000000000, -1.000000000000000000 ) ) ;
#822 = AXIS2_PLACEMENT_3D ( 'NONE', #724, #573, #370 ) ;
#823 = DIRECTION ( 'NONE',  ( 0.0000000000000000000, 0.0000000000000000000, -1.000000000000000000 ) ) ;
#824 = CARTESIAN_POINT ( 'NONE',  ( -0.4933926288097839064, 0.4710011231153236611, 0.03200000000000000067 ) ) ;
#825 = VERTEX_POINT ( 'NONE', #916 ) ;
#826 = ORIENTED_EDGE ( 'NONE', *, *, #522, .T. ) ;
#827 = ADVANCED_FACE ( 'NONE', ( #249 ), #844, .F. ) ;
#828 = VECTOR ( 'NONE', #133, 39.37007874015748143 ) ;
#829 = CARTESIAN_POINT ( 'NONE',  ( 0.2818334567554453551, 0.6376481959091955254, 0.03200000000000000067 ) ) ;
#830 = AXIS2_PLACEMENT_3D ( 'NONE', #814, #798, #341 ) ;
#831 = ORIENTED_EDGE ( 'NONE', *, *, #749, .T. ) ;
#832 = VERTEX_POINT ( 'NONE', #472 ) ;
#833 = CARTESIAN_POINT ( 'NONE',  ( 0.4412198479097603210, 0.5672011721945811047, 0.0000000000000000000 ) ) ;
#834 = ORIENTED_EDGE ( 'NONE', *, *, #276, .F. ) ;
#835 = AXIS2_PLACEMENT_3D ( 'NONE', #99, #849, #103 ) ;
#836 = CARTESIAN_POINT ( 'NONE',  ( 0.01471223434393020314, 0.01960079322403359900, 0.0000000000000000000 ) ) ;
#837 = EDGE_CURVE ( 'NONE', #402, #149, #811, .T. ) ;
#838 = ORIENTED_EDGE ( 'NONE', *, *, #225, .T. ) ;
#839 = CARTESIAN_POINT ( 'NONE',  ( 0.0000000000000000000, 0.0000000000000000000, 0.0000000000000000000 ) ) ;
#840 = DIRECTION ( 'NONE',  ( 0.0000000000000000000, -0.0000000000000000000, -1.000000000000000000 ) ) ;
#841 = ADVANCED_FACE ( 'NONE', ( #469 ), #121, .T. ) ;
#842 = VERTEX_POINT ( 'NONE', #57 ) ;
#843 = DIRECTION ( 'NONE',  ( -0.0000000000000000000, 0.0000000000000000000, 1.000000000000000000 ) ) ;
#844 = CYLINDRICAL_SURFACE ( 'NONE', #705, 0.05600000000000002892 ) ;
#845 = SURFACE_SIDE_STYLE ('',( #536 ) ) ;
#846 = DIRECTION ( 'NONE',  ( -0.0000000000000000000, -0.0000000000000000000, -1.000000000000000000 ) ) ;
#847 = DIRECTION ( 'NONE',  ( -0.0000000000000000000, 0.0000000000000000000, 1.000000000000000000 ) ) ;
#848 = EDGE_CURVE ( 'NONE', #585, #61, #54, .T. ) ;
#849 = DIRECTION ( 'NONE',  ( 0.0000000000000000000, 0.0000000000000000000, 1.000000000000000000 ) ) ;
#850 = AXIS2_PLACEMENT_3D ( 'NONE', #645, #932, #49 ) ;
#851 = FILL_AREA_STYLE ('',( #917 ) ) ;
#852 = CIRCLE ( 'NONE', #52, 0.04000000000000001471 ) ;
#853 = ORIENTED_EDGE ( 'NONE', *, *, #767, .T. ) ;
#854 = EDGE_CURVE ( 'NONE', #495, #422, #435, .T. ) ;
#855 = LINE ( 'NONE', #527, #544 ) ;
#856 = DIRECTION ( 'NONE',  ( -0.0000000000000000000, 0.0000000000000000000, 1.000000000000000000 ) ) ;
#857 = CARTESIAN_POINT ( 'NONE',  ( 0.0000000000000000000, 0.0000000000000000000, 0.03200000000000000067 ) ) ;
#858 = STYLED_ITEM ( 'NONE', ( #395 ), #242 ) ;
#859 = CARTESIAN_POINT ( 'NONE',  ( 0.0000000000000000000, 0.0000000000000000000, 0.03200000000000000067 ) ) ;
#860 = DIRECTION ( 'NONE',  ( -1.000000000000000000, 0.0000000000000000000, 0.0000000000000000000 ) ) ;
#861 = EDGE_LOOP ( 'NONE', ( #156, #340, #159, #785 ) ) ;
#862 = DIRECTION ( 'NONE',  ( -0.0000000000000000000, -0.0000000000000000000, -1.000000000000000000 ) ) ;
#863 = LINE ( 'NONE', #415, #815 ) ;
#864 = LINE ( 'NONE', #478, #755 ) ;
#865 = ORIENTED_EDGE ( 'NONE', *, *, #894, .T. ) ;
#866 = DIRECTION ( 'NONE',  ( 1.000000000000000000, 0.0000000000000000000, 0.0000000000000000000 ) ) ;
#867 = CARTESIAN_POINT ( 'NONE',  ( 0.2656011537348094143, 0.09476300509554408391, 0.0000000000000000000 ) ) ;
#868 = ADVANCED_FACE ( 'NONE', ( #660 ), #232, .F. ) ;
#869 = CARTESIAN_POINT ( 'NONE',  ( -0.3071705229060617270, 0.6249331328088847393, 0.03200000000000000067 ) ) ;
#870 = CARTESIAN_POINT ( 'NONE',  ( -0.2334191693057296735, 0.1582387165033357912, 0.03200000000000000067 ) ) ;
#871 = VERTEX_POINT ( 'NONE', #155 ) ;
#872 = VERTEX_POINT ( 'NONE', #750 ) ;
#873 = CARTESIAN_POINT ( 'NONE',  ( 0.02430010935480583084, 0.2699821960238507623, 0.03200000000000000067 ) ) ;
#874 = PLANE ( 'NONE',  #603 ) ;
#875 = EDGE_CURVE ( 'NONE', #376, #777, #2, .T. ) ;
#876 = DIRECTION ( 'NONE',  ( 1.000000000000000000, 0.0000000000000000000, 0.0000000000000000000 ) ) ;
#877 = ORIENTED_EDGE ( 'NONE', *, *, #634, .F. ) ;
#878 = VECTOR ( 'NONE', #116, 39.37007874015748143 ) ;
#879 = AXIS2_PLACEMENT_3D ( 'NONE', #745, #608, #908 ) ;
#880 = ORIENTED_EDGE ( 'NONE', *, *, #375, .F. ) ;
#881 = CARTESIAN_POINT ( 'NONE',  ( -0.0008084969511555448619, 0.3011199205613347973, 0.0000000000000000000 ) ) ;
#882 = ORIENTED_EDGE ( 'NONE', *, *, #494, .T. ) ;
#883 = EDGE_CURVE ( 'NONE', #893, #890, #228, .T. ) ;
#884 = ORIENTED_EDGE ( 'NONE', *, *, #451, .F. ) ;
#885 = DIRECTION ( 'NONE',  ( -0.0000000000000000000, 0.0000000000000000000, 1.000000000000000000 ) ) ;
#886 = ORIENTED_EDGE ( 'NONE', *, *, #577, .T. ) ;
#887 = CIRCLE ( 'NONE', #453, 0.05600000000000002892 ) ;
#888 = CYLINDRICAL_SURFACE ( 'NONE', #830, 0.05600000000000002892 ) ;
#889 = EDGE_CURVE ( 'NONE', #508, #376, #274, .T. ) ;
#890 = VERTEX_POINT ( 'NONE', #65 ) ;
#891 = CARTESIAN_POINT ( 'NONE',  ( -0.2334191693057296735, 0.1582387165033357912, 0.03200000000000000067 ) ) ;
#892 = VERTEX_POINT ( 'NONE', #344 ) ;
#893 = VERTEX_POINT ( 'NONE', #918 ) ;
#894 = EDGE_CURVE ( 'NONE', #777, #872, #809, .T. ) ;
#895 = ORIENTED_EDGE ( 'NONE', *, *, #740, .F. ) ;
#896 =( GEOMETRIC_REPRESENTATION_CONTEXT ( 3 ) GLOBAL_UNCERTAINTY_ASSIGNED_CONTEXT ( ( #56 ) ) GLOBAL_UNIT_ASSIGNED_CONTEXT ( ( #477, #507, #575 ) ) REPRESENTATION_CONTEXT ( 'NONE', 'WORKASPACE' ) );
#897 = DIRECTION ( 'NONE',  ( -1.000000000000000000, 0.0000000000000000000, 0.0000000000000000000 ) ) ;
#898 = VECTOR ( 'NONE', #944, 39.37007874015748143 ) ;
#899 = DIRECTION ( 'NONE',  ( -0.0000000000000000000, 0.0000000000000000000, 1.000000000000000000 ) ) ;
#900 = ORIENTED_EDGE ( 'NONE', *, *, #475, .F. ) ;
#901 = DIRECTION ( 'NONE',  ( -1.000000000000000000, 0.0000000000000000000, 0.0000000000000000000 ) ) ;
#902 = VECTOR ( 'NONE', #715, 39.37007874015748143 ) ;
#903 = CARTESIAN_POINT ( 'NONE',  ( 0.03369084767572786548, -0.009309313173556387627, 0.03200000000000000067 ) ) ;
#904 = VECTOR ( 'NONE', #665, 39.37007874015748854 ) ;
#905 = ORIENTED_EDGE ( 'NONE', *, *, #924, .F. ) ;
#906 = DIRECTION ( 'NONE',  ( -0.0000000000000000000, -0.0000000000000000000, -1.000000000000000000 ) ) ;
#907 = EDGE_CURVE ( 'NONE', #215, #495, #1, .T. ) ;
#908 = DIRECTION ( 'NONE',  ( 1.000000000000000000, 0.0000000000000000000, 0.0000000000000000000 ) ) ;
#909 = VERTEX_POINT ( 'NONE', #563 ) ;
#910 = LINE ( 'NONE', #12, #520 ) ;
#911 = EDGE_CURVE ( 'NONE', #22, #537, #769, .T. ) ;
#912 = DIRECTION ( 'NONE',  ( -0.0000000000000000000, -0.0000000000000000000, -1.000000000000000000 ) ) ;
#913 = FACE_OUTER_BOUND ( 'NONE', #543, .T. ) ;
#914 = ADVANCED_FACE ( 'NONE', ( #7 ), #227, .T. ) ;
#915 = CYLINDRICAL_SURFACE ( 'NONE', #744, 0.2819999999999999729 ) ;
#916 = CARTESIAN_POINT ( 'NONE',  ( -0.3955183400365003266, 0.5473724357518624517, 0.03200000000000000067 ) ) ;
#917 = FILL_AREA_STYLE_COLOUR ( '', #135 ) ;
#918 = CARTESIAN_POINT ( 'NONE',  ( 0.2383184267968200543, 0.2162741445603595936, 0.03200000000000000067 ) ) ;
#919 = VECTOR ( 'NONE', #301, 39.37007874015748143 ) ;
#920 = ORIENTED_EDGE ( 'NONE', *, *, #889, .F. ) ;
#921 = CARTESIAN_POINT ( 'NONE',  ( -0.004551972499590936812, 0.01551808806678743949, 0.0000000000000000000 ) ) ;
#922 = DIRECTION ( 'NONE',  ( -1.000000000000000000, 0.0000000000000000000, 0.0000000000000000000 ) ) ;
#923 = DIRECTION ( 'NONE',  ( -0.6277151576490348495, 0.7784431134371011529, 0.0000000000000000000 ) ) ;
#924 = EDGE_CURVE ( 'NONE', #825, #548, #542, .T. ) ;
#925 = DIRECTION ( 'NONE',  ( -0.0000000000000000000, -0.0000000000000000000, -1.000000000000000000 ) ) ;
#926 = CARTESIAN_POINT ( 'NONE',  ( -0.2010000000000000120, 0.0000000000000000000, 0.03200000000000000067 ) ) ;
#927 = CARTESIAN_POINT ( 'NONE',  ( 0.0000000000000000000, 0.0000000000000000000, 0.03200000000000000067 ) ) ;
#928 = AXIS2_PLACEMENT_3D ( 'NONE', #619, #762, #190 ) ;
#929 = ORIENTED_EDGE ( 'NONE', *, *, #686, .F. ) ;
#930 = DIRECTION ( 'NONE',  ( -0.0000000000000000000, -0.0000000000000000000, -1.000000000000000000 ) ) ;
#931 = CARTESIAN_POINT ( 'NONE',  ( 0.2634448426570215052, 0.1851507895673608350, 0.03200000000000000067 ) ) ;
#932 = DIRECTION ( 'NONE',  ( 0.0000000000000000000, -0.0000000000000000000, -1.000000000000000000 ) ) ;
#933 = VECTOR ( 'NONE', #625, 39.37007874015748143 ) ;
#934 = CARTESIAN_POINT ( 'NONE',  ( -0.004551972499590936812, 0.01551808806678743949, 0.03200000000000000067 ) ) ;
#935 = ORIENTED_EDGE ( 'NONE', *, *, #292, .T. ) ;
#936 = ADVANCED_FACE ( 'NONE', ( #389 ), #687, .T. ) ;
#937 = DIRECTION ( 'NONE',  ( 0.0000000000000000000, -0.0000000000000000000, -1.000000000000000000 ) ) ;
#938 = DIRECTION ( 'NONE',  ( -0.0000000000000000000, -0.0000000000000000000, 1.000000000000000000 ) ) ;
#939 = CARTESIAN_POINT ( 'NONE',  ( 0.5070212982399783241, 0.5381176582364738392, 0.03200000000000000067 ) ) ;
#940 = ORIENTED_EDGE ( 'NONE', *, *, #276, .T. ) ;
#941 = ORIENTED_EDGE ( 'NONE', *, *, #101, .F. ) ;
#942 = EDGE_CURVE ( 'NONE', #581, #666, #393, .T. ) ;
#943 = DIRECTION ( 'NONE',  ( -0.9146431543466345682, 0.4042621676670205555, 0.0000000000000000000 ) ) ;
#944 = DIRECTION ( 'NONE',  ( -0.0000000000000000000, -0.0000000000000000000, -1.000000000000000000 ) ) ;
#945 = ORIENTED_EDGE ( 'NONE', *, *, #634, .T. ) ;
#946 = DIMENSIONAL_EXPONENTS ( 1.000000000000000000, 0.0000000000000000000, 0.0000000000000000000, 0.0000000000000000000, 0.0000000000000000000, 0.0000000000000000000, 0.0000000000000000000 ) ;
#947 = VERTEX_POINT ( 'NONE', #794 ) ;
#948 = SHAPE_DEFINITION_REPRESENTATION ( #172, #297 ) ;
#949 = LINE ( 'NONE', #956, #550 ) ;
#950 = EDGE_CURVE ( 'NONE', #947, #595, #338, .T. ) ;
#951 = ORIENTED_EDGE ( 'NONE', *, *, #511, .F. ) ;
#952 = VECTOR ( 'NONE', #692, 39.37007874015748143 ) ;
#953 = PLANE ( 'NONE',  #398 ) ;
#954 = VECTOR ( 'NONE', #906, 39.37007874015748143 ) ;
#955 = EDGE_LOOP ( 'NONE', ( #302, #853, #218, #383 ) ) ;
#956 = CARTESIAN_POINT ( 'NONE',  ( -0.01166947824865572324, 0.01445464073096328246, 0.03200000000000000067 ) ) ;
#957 = ORIENTED_EDGE ( 'NONE', *, *, #698, .T. ) ;
#958 = ORIENTED_EDGE ( 'NONE', *, *, #875, .F. ) ;
#959 = EDGE_CURVE ( 'NONE', #842, #871, #960, .T. ) ;
#960 = CIRCLE ( 'NONE', #850, 0.05600000000000002892 ) ;
#961 = ORIENTED_EDGE ( 'NONE', *, *, #587, .T. ) ;
#962 = VECTOR ( 'NONE', #321, 39.37007874015748143 ) ;
#963 = DIRECTION ( 'NONE',  ( -0.0000000000000000000, 0.0000000000000000000, 1.000000000000000000 ) ) ;
ENDSEC;
END-ISO-10303-21;
